Hubballi-Regular-export.ufo
<glyph name="eight" format="1">
  <advance width="558"/>
  <unicode hex="0038"/>
  <note>
    eight
  </note>
  <outline>
    <contour>
      <point x="280" y="-8" type="curve" smooth="yes"/>
      <point x="436" y="-8"/>
      <point x="488" y="68"/>
      <point x="488" y="152" type="curve" smooth="yes"/>
      <point x="488" y="212"/>
      <point x="456" y="262"/>
      <point x="397" y="289" type="curve"/>
      <point x="442" y="315"/>
      <point x="462" y="358"/>
      <point x="462" y="404" type="curve" smooth="yes"/>
      <point x="462" y="484"/>
      <point x="397" y="542"/>
      <point x="280" y="542" type="curve" smooth="yes"/>
      <point x="157" y="542"/>
      <point x="96" y="484"/>
      <point x="96" y="404" type="curve" smooth="yes"/>
      <point x="96" y="358"/>
      <point x="115" y="316"/>
      <point x="159" y="289" type="curve"/>
      <point x="100" y="262"/>
      <point x="70" y="212"/>
      <point x="70" y="151" type="curve" smooth="yes"/>
      <point x="70" y="68"/>
      <point x="133" y="-8"/>
    </contour>
    <contour>
      <point x="280" y="492" type="curve" smooth="yes"/>
      <point x="355" y="492"/>
      <point x="412" y="462"/>
      <point x="412" y="404" type="curve" smooth="yes"/>
      <point x="412" y="349"/>
      <point x="363" y="312"/>
      <point x="280" y="312" type="curve" smooth="yes"/>
      <point x="194" y="312"/>
      <point x="146" y="349"/>
      <point x="146" y="404" type="curve" smooth="yes"/>
      <point x="146" y="462"/>
      <point x="201" y="492"/>
    </contour>
    <contour>
      <point x="280" y="262" type="curve" smooth="yes"/>
      <point x="370" y="262"/>
      <point x="438" y="222"/>
      <point x="438" y="152" type="curve" smooth="yes"/>
      <point x="438" y="88"/>
      <point x="388" y="42"/>
      <point x="280" y="42" type="curve" smooth="yes"/>
      <point x="179" y="42"/>
      <point x="120" y="88"/>
      <point x="120" y="151" type="curve" smooth="yes"/>
      <point x="120" y="222"/>
      <point x="184" y="262"/>
    </contour>
  </outline>
</glyph>
<glyph name="A" format="1">
  <advance width="580"/>
  <unicode hex="0041"/>
  <note>
    A
  </note>
  <outline>
    <contour>
      <point x="505" y="0" type="curve" smooth="yes"/>
      <point x="518" y="0"/>
      <point x="530" y="12"/>
      <point x="530" y="25" type="curve" smooth="yes"/>
      <point x="530" y="28"/>
      <point x="529" y="33"/>
      <point x="519" y="57" type="curve" smooth="yes"/>
      <point x="480" y="156"/>
      <point x="382" y="375"/>
      <point x="310" y="530" type="curve" smooth="yes"/>
      <point x="306" y="539"/>
      <point x="296" y="544"/>
      <point x="286" y="544" type="curve" smooth="yes"/>
      <point x="282" y="544" type="line" smooth="yes"/>
      <point x="272" y="544"/>
      <point x="262" y="538"/>
      <point x="258" y="529" type="curve" smooth="yes"/>
      <point x="189" y="376"/>
      <point x="103" y="178"/>
      <point x="58" y="57" type="curve" smooth="yes"/>
      <point x="49" y="34"/>
      <point x="48" y="30"/>
      <point x="48" y="26" type="curve" smooth="yes"/>
      <point x="48" y="11"/>
      <point x="60" y="0"/>
      <point x="72" y="0" type="curve" smooth="yes"/>
      <point x="82" y="0"/>
      <point x="93" y="6"/>
      <point x="97" y="17" type="curve" smooth="yes"/>
      <point x="110" y="53"/>
      <point x="127" y="97"/>
      <point x="146" y="145" type="curve"/>
      <point x="428" y="145" type="line"/>
      <point x="449" y="97"/>
      <point x="468" y="52"/>
      <point x="482" y="16" type="curve" smooth="yes"/>
      <point x="486" y="6"/>
      <point x="495" y="0"/>
    </contour>
    <contour>
      <point x="407" y="195" type="curve"/>
      <point x="167" y="195" type="line"/>
      <point x="204" y="284"/>
      <point x="247" y="380"/>
      <point x="284" y="465" type="curve"/>
      <point x="324" y="381"/>
      <point x="368" y="284"/>
    </contour>
    <contour>
      <point x="287" y="538" type="move" name="top"/>
    </contour>
  </outline>
</glyph>
<glyph name="D" format="1">
  <advance width="612"/>
  <unicode hex="0044"/>
  <note>
    D
  </note>
  <outline>
    <contour>
      <point x="299" y="0" type="line" smooth="yes"/>
      <point x="451" y="0"/>
      <point x="551" y="118"/>
      <point x="551" y="268" type="curve" smooth="yes"/>
      <point x="551" y="426"/>
      <point x="431" y="535"/>
      <point x="299" y="535" type="curve" smooth="yes"/>
      <point x="123" y="535" type="line" smooth="yes"/>
      <point x="109" y="535"/>
      <point x="98" y="524"/>
      <point x="98" y="510" type="curve" smooth="yes"/>
      <point x="98" y="25" type="line" smooth="yes"/>
      <point x="98" y="11"/>
      <point x="109" y="0"/>
      <point x="123" y="0" type="curve" smooth="yes"/>
    </contour>
    <contour>
      <point x="299" y="485" type="line" smooth="yes"/>
      <point x="407" y="485"/>
      <point x="501" y="394"/>
      <point x="501" y="268" type="curve" smooth="yes"/>
      <point x="501" y="148"/>
      <point x="423" y="50"/>
      <point x="299" y="50" type="curve" smooth="yes"/>
      <point x="148" y="50" type="line"/>
      <point x="148" y="485" type="line"/>
    </contour>
    <contour>
      <point x="274" y="535" type="move" name="top"/>
    </contour>
  </outline>
</glyph>
<glyph name="L" format="1">
  <advance width="459"/>
  <unicode hex="004C"/>
  <note>
    L
  </note>
  <outline>
    <contour>
      <point x="394" y="0" type="line" smooth="yes"/>
      <point x="408" y="0"/>
      <point x="419" y="12"/>
      <point x="419" y="25" type="curve" smooth="yes"/>
      <point x="419" y="39"/>
      <point x="408" y="50"/>
      <point x="394" y="50" type="curve" smooth="yes"/>
      <point x="148" y="50" type="line"/>
      <point x="148" y="510" type="line" smooth="yes"/>
      <point x="148" y="524"/>
      <point x="137" y="535"/>
      <point x="123" y="535" type="curve" smooth="yes"/>
      <point x="110" y="535"/>
      <point x="98" y="524"/>
      <point x="98" y="510" type="curve" smooth="yes"/>
      <point x="98" y="25" type="line" smooth="yes"/>
      <point x="98" y="12"/>
      <point x="110" y="0"/>
      <point x="123" y="0" type="curve" smooth="yes"/>
    </contour>
    <contour>
      <point x="123" y="535" type="move" name="top"/>
    </contour>
    <contour>
      <point x="260" y="0" type="move" name="bottom"/>
    </contour>
  </outline>
</glyph>
<glyph name="M" format="1">
  <advance width="820"/>
  <unicode hex="004D"/>
  <note>
    M
  </note>
  <outline>
    <contour>
      <point x="714" y="-2" type="curve" smooth="yes"/>
      <point x="728" y="-2"/>
      <point x="739" y="9"/>
      <point x="739" y="23" type="curve" smooth="yes"/>
      <point x="739" y="27"/>
      <point x="738" y="37"/>
      <point x="728" y="103" type="curve" smooth="yes"/>
      <point x="721" y="148"/>
      <point x="689" y="368"/>
      <point x="657" y="525" type="curve" smooth="yes"/>
      <point x="655" y="537"/>
      <point x="643" y="545"/>
      <point x="631" y="545" type="curve" smooth="yes"/>
      <point x="622" y="545"/>
      <point x="614" y="542"/>
      <point x="608" y="532" type="curve" smooth="yes"/>
      <point x="539" y="403"/>
      <point x="464" y="235"/>
      <point x="407" y="104" type="curve"/>
      <point x="342" y="237"/>
      <point x="263" y="400"/>
      <point x="208" y="512" type="curve" smooth="yes"/>
      <point x="204" y="521"/>
      <point x="197" y="531"/>
      <point x="192" y="536" type="curve" smooth="yes"/>
      <point x="188" y="541"/>
      <point x="182" y="544"/>
      <point x="174" y="544" type="curve" smooth="yes"/>
      <point x="162" y="544"/>
      <point x="150" y="535"/>
      <point x="148" y="523" type="curve" smooth="yes"/>
      <point x="123" y="380"/>
      <point x="93" y="142"/>
      <point x="83" y="53" type="curve" smooth="yes"/>
      <point x="81" y="35"/>
      <point x="80" y="25"/>
      <point x="80" y="24" type="curve" smooth="yes"/>
      <point x="80" y="9"/>
      <point x="91" y="-2"/>
      <point x="104" y="-2" type="curve" smooth="yes"/>
      <point x="117" y="-2"/>
      <point x="129" y="8"/>
      <point x="130" y="20" type="curve" smooth="yes"/>
      <point x="141" y="119"/>
      <point x="165" y="305"/>
      <point x="187" y="446" type="curve"/>
      <point x="247" y="321"/>
      <point x="326" y="154"/>
      <point x="385" y="31" type="curve" smooth="yes"/>
      <point x="389" y="22"/>
      <point x="399" y="17"/>
      <point x="409" y="17" type="curve" smooth="yes"/>
      <point x="420" y="17"/>
      <point x="427" y="24"/>
      <point x="431" y="34" type="curve" smooth="yes"/>
      <point x="481" y="155"/>
      <point x="553" y="312"/>
      <point x="620" y="447" type="curve"/>
      <point x="647" y="303"/>
      <point x="674" y="134"/>
      <point x="689" y="20" type="curve" smooth="yes"/>
      <point x="691" y="7"/>
      <point x="702" y="-2"/>
    </contour>
  </outline>
</glyph>
<glyph name="O" format="1">
  <advance width="640"/>
  <unicode hex="004F"/>
  <note>
    O
  </note>
  <outline>
    <contour>
      <point x="322" y="544" type="curve" smooth="yes"/>
      <point x="167" y="544"/>
      <point x="61" y="431"/>
      <point x="61" y="264" type="curve" smooth="yes"/>
      <point x="61" y="111"/>
      <point x="169" y="-9"/>
      <point x="322" y="-9" type="curve" smooth="yes"/>
      <point x="484" y="-9"/>
      <point x="579" y="111"/>
      <point x="579" y="267" type="curve" smooth="yes"/>
      <point x="579" y="431"/>
      <point x="464" y="544"/>
    </contour>
    <contour>
      <point x="322" y="494" type="curve" smooth="yes"/>
      <point x="438" y="494"/>
      <point x="529" y="399"/>
      <point x="529" y="267" type="curve" smooth="yes"/>
      <point x="529" y="141"/>
      <point x="454" y="41"/>
      <point x="322" y="41" type="curve" smooth="yes"/>
      <point x="197" y="41"/>
      <point x="111" y="141"/>
      <point x="111" y="264" type="curve" smooth="yes"/>
      <point x="111" y="399"/>
      <point x="195" y="494"/>
    </contour>
    <contour>
      <point x="322" y="537" type="move" name="top"/>
    </contour>
  </outline>
</glyph>
<glyph name="T" format="1">
  <advance width="546"/>
  <unicode hex="0054"/>
  <note>
    T
  </note>
  <outline>
    <contour>
      <point x="271" y="0" type="curve" smooth="yes"/>
      <point x="285" y="0"/>
      <point x="296" y="11"/>
      <point x="296" y="25" type="curve" smooth="yes"/>
      <point x="296" y="485" type="line"/>
      <point x="487" y="485" type="line" smooth="yes"/>
      <point x="501" y="485"/>
      <point x="512" y="497"/>
      <point x="512" y="510" type="curve" smooth="yes"/>
      <point x="512" y="524"/>
      <point x="501" y="535"/>
      <point x="487" y="535" type="curve" smooth="yes"/>
      <point x="59" y="535" type="line" smooth="yes"/>
      <point x="46" y="535"/>
      <point x="34" y="524"/>
      <point x="34" y="510" type="curve" smooth="yes"/>
      <point x="34" y="497"/>
      <point x="46" y="485"/>
      <point x="59" y="485" type="curve" smooth="yes"/>
      <point x="246" y="485" type="line"/>
      <point x="246" y="25" type="line" smooth="yes"/>
      <point x="246" y="12"/>
      <point x="258" y="0"/>
    </contour>
    <contour>
      <point x="273" y="535" type="move" name="top"/>
    </contour>
    <contour>
      <point x="271" y="0" type="move" name="bottom"/>
    </contour>
  </outline>
</glyph>
<glyph name="Y" format="1">
  <advance width="560"/>
  <unicode hex="0059"/>
  <note>
    Y
  </note>
  <outline>
    <contour>
      <point x="282" y="0" type="curve" smooth="yes"/>
      <point x="296" y="0"/>
      <point x="307" y="11"/>
      <point x="307" y="25" type="curve" smooth="yes"/>
      <point x="307" y="191" type="line"/>
      <point x="358" y="262"/>
      <point x="467" y="430"/>
      <point x="507" y="497" type="curve" smooth="yes"/>
      <point x="509" y="501"/>
      <point x="510" y="506"/>
      <point x="510" y="510" type="curve" smooth="yes"/>
      <point x="510" y="524"/>
      <point x="501" y="534"/>
      <point x="486" y="534" type="curve" smooth="yes"/>
      <point x="477" y="534"/>
      <point x="469" y="530"/>
      <point x="465" y="523" type="curve" smooth="yes"/>
      <point x="429" y="462"/>
      <point x="338" y="320"/>
      <point x="283" y="242" type="curve"/>
      <point x="231" y="314"/>
      <point x="133" y="461"/>
      <point x="95" y="523" type="curve" smooth="yes"/>
      <point x="91" y="530"/>
      <point x="82" y="534"/>
      <point x="74" y="534" type="curve" smooth="yes"/>
      <point x="58" y="534"/>
      <point x="50" y="522"/>
      <point x="50" y="510" type="curve" smooth="yes"/>
      <point x="50" y="505"/>
      <point x="51" y="501"/>
      <point x="53" y="497" type="curve" smooth="yes"/>
      <point x="94" y="428"/>
      <point x="212" y="252"/>
      <point x="257" y="193" type="curve"/>
      <point x="257" y="25" type="line" smooth="yes"/>
      <point x="257" y="12"/>
      <point x="269" y="0"/>
    </contour>
    <contour>
      <point x="285" y="508" type="move" name="top"/>
    </contour>
  </outline>
</glyph>
<glyph name="Z" format="1">
  <advance width="563"/>
  <unicode hex="005A"/>
  <note>
    Z
  </note>
  <outline>
    <contour>
      <point x="89" y="0" type="curve" smooth="yes"/>
      <point x="474" y="0" type="line" smooth="yes"/>
      <point x="488" y="0"/>
      <point x="499" y="12"/>
      <point x="499" y="25" type="curve" smooth="yes"/>
      <point x="499" y="39"/>
      <point x="488" y="50"/>
      <point x="474" y="50" type="curve" smooth="yes"/>
      <point x="136" y="50" type="line"/>
      <point x="216" y="159"/>
      <point x="426" y="411"/>
      <point x="483" y="496" type="curve" smooth="yes"/>
      <point x="486" y="500"/>
      <point x="487" y="505"/>
      <point x="487" y="509" type="curve" smooth="yes"/>
      <point x="487" y="523"/>
      <point x="476" y="535"/>
      <point x="463" y="535" type="curve" smooth="yes"/>
      <point x="102" y="535" type="line" smooth="yes"/>
      <point x="89" y="535"/>
      <point x="77" y="524"/>
      <point x="77" y="510" type="curve" smooth="yes"/>
      <point x="77" y="497"/>
      <point x="89" y="485"/>
      <point x="102" y="485" type="curve" smooth="yes"/>
      <point x="413" y="485" type="line"/>
      <point x="324" y="365"/>
      <point x="119" y="120"/>
      <point x="72" y="47" type="curve" smooth="yes"/>
      <point x="69" y="43"/>
      <point x="64" y="34"/>
      <point x="64" y="25" type="curve" smooth="yes"/>
      <point x="64" y="12"/>
      <point x="76" y="0"/>
    </contour>
    <contour>
      <point x="289" y="535" type="move" name="top"/>
    </contour>
  </outline>
</glyph>
<glyph name="bracketright" format="1">
  <advance width="335"/>
  <unicode hex="005D"/>
  <note>
    bracketright
  </note>
  <outline>
    <contour>
      <point x="102" y="-91" type="curve" smooth="yes"/>
      <point x="237" y="-91" type="line" smooth="yes"/>
      <point x="251" y="-91"/>
      <point x="262" y="-80"/>
      <point x="262" y="-66" type="curve" smooth="yes"/>
      <point x="262" y="613" type="line" smooth="yes"/>
      <point x="262" y="627"/>
      <point x="251" y="638"/>
      <point x="237" y="638" type="curve" smooth="yes"/>
      <point x="102" y="638" type="line" smooth="yes"/>
      <point x="88" y="638"/>
      <point x="77" y="627"/>
      <point x="77" y="613" type="curve" smooth="yes"/>
      <point x="77" y="600"/>
      <point x="88" y="588"/>
      <point x="102" y="588" type="curve" smooth="yes"/>
      <point x="212" y="588" type="line"/>
      <point x="212" y="-41" type="line"/>
      <point x="102" y="-41" type="line" smooth="yes"/>
      <point x="88" y="-41"/>
      <point x="77" y="-53"/>
      <point x="77" y="-66" type="curve" smooth="yes"/>
      <point x="77" y="-80"/>
      <point x="88" y="-91"/>
    </contour>
  </outline>
</glyph>
<glyph name="a" format="1">
  <advance width="450"/>
  <unicode hex="0061"/>
  <note>
    a
  </note>
  <outline>
    <contour>
      <point x="172" y="50" type="curve" smooth="yes"/>
      <point x="123" y="50"/>
      <point x="100" y="79"/>
      <point x="100" y="106" type="curve" smooth="yes"/>
      <point x="100" y="124"/>
      <point x="105" y="142"/>
      <point x="121" y="158" type="curve" smooth="yes"/>
      <point x="146" y="183"/>
      <point x="191" y="197"/>
      <point x="255" y="197" type="curve" smooth="yes"/>
      <point x="277" y="197"/>
      <point x="299" y="196"/>
      <point x="324" y="194" type="curve"/>
      <point x="324" y="129" type="line"/>
      <point x="282" y="75"/>
      <point x="229" y="50"/>
    </contour>
    <contour>
      <point x="368" y="9" type="curve" smooth="yes"/>
      <point x="373" y="4"/>
      <point x="379" y="1"/>
      <point x="386" y="1" type="curve" smooth="yes"/>
      <point x="399" y="1"/>
      <point x="411" y="12"/>
      <point x="411" y="26" type="curve" smooth="yes"/>
      <point x="411" y="32"/>
      <point x="409" y="38"/>
      <point x="404" y="43" type="curve" smooth="yes"/>
      <point x="384" y="65"/>
      <point x="374" y="93"/>
      <point x="374" y="139" type="curve" smooth="yes"/>
      <point x="374" y="230" type="line" smooth="yes"/>
      <point x="374" y="326"/>
      <point x="324" y="392"/>
      <point x="215" y="392" type="curve" smooth="yes"/>
      <point x="179" y="392"/>
      <point x="137" y="382"/>
      <point x="114" y="375" type="curve" smooth="yes"/>
      <point x="103" y="371"/>
      <point x="97" y="361"/>
      <point x="97" y="350" type="curve" smooth="yes"/>
      <point x="97" y="338"/>
      <point x="110" y="326"/>
      <point x="123" y="326" type="curve" smooth="yes"/>
      <point x="126" y="326"/>
      <point x="134" y="328"/>
      <point x="142" y="331" type="curve" smooth="yes"/>
      <point x="157" y="336"/>
      <point x="188" y="342"/>
      <point x="215" y="342" type="curve" smooth="yes"/>
      <point x="284" y="342"/>
      <point x="318" y="304"/>
      <point x="323" y="244" type="curve"/>
      <point x="299" y="246"/>
      <point x="277" y="247"/>
      <point x="255" y="247" type="curve" smooth="yes"/>
      <point x="173" y="247"/>
      <point x="118" y="223"/>
      <point x="85" y="192" type="curve" smooth="yes"/>
      <point x="61" y="169"/>
      <point x="50" y="138"/>
      <point x="50" y="106" type="curve" smooth="yes"/>
      <point x="50" y="61"/>
      <point x="79" y="0"/>
      <point x="172" y="0" type="curve" smooth="yes"/>
      <point x="234" y="0"/>
      <point x="289" y="24"/>
      <point x="334" y="67" type="curve"/>
      <point x="342" y="44"/>
      <point x="353" y="25"/>
    </contour>
    <contour>
      <point x="215" y="392" type="move" name="top"/>
    </contour>
  </outline>
</glyph>
<glyph name="l" format="1">
  <advance width="232"/>
  <unicode hex="006C"/>
  <note>
    l
  </note>
  <outline>
    <contour>
      <point x="91" y="25" type="line" smooth="yes"/>
      <point x="91" y="12"/>
      <point x="103" y="0"/>
      <point x="116" y="0" type="curve" smooth="yes"/>
      <point x="130" y="0"/>
      <point x="141" y="11"/>
      <point x="141" y="25" type="curve" smooth="yes"/>
      <point x="141" y="536" type="line" smooth="yes"/>
      <point x="141" y="550"/>
      <point x="130" y="561"/>
      <point x="116" y="561" type="curve" smooth="yes"/>
      <point x="103" y="561"/>
      <point x="91" y="550"/>
      <point x="91" y="536" type="curve" smooth="yes"/>
    </contour>
    <contour>
      <point x="116" y="561" type="move" name="top"/>
    </contour>
    <contour>
      <point x="116" y="0" type="move" name="bottom"/>
    </contour>
  </outline>
</glyph>
<glyph name="t" format="1">
  <advance width="354"/>
  <unicode hex="0074"/>
  <note>
    t
  </note>
  <outline>
    <contour>
      <point x="279" y="0" type="curve" smooth="yes"/>
      <point x="292" y="0"/>
      <point x="304" y="11"/>
      <point x="304" y="25" type="curve" smooth="yes"/>
      <point x="304" y="38"/>
      <point x="293" y="50"/>
      <point x="279" y="50" type="curve" smooth="yes"/>
      <point x="200" y="50"/>
      <point x="159" y="81"/>
      <point x="159" y="142" type="curve" smooth="yes"/>
      <point x="159" y="342" type="line"/>
      <point x="292" y="342" type="line" smooth="yes"/>
      <point x="306" y="342"/>
      <point x="317" y="354"/>
      <point x="317" y="367" type="curve" smooth="yes"/>
      <point x="317" y="381"/>
      <point x="306" y="392"/>
      <point x="292" y="392" type="curve" smooth="yes"/>
      <point x="159" y="392" type="line"/>
      <point x="159" y="493" type="line" smooth="yes"/>
      <point x="159" y="507"/>
      <point x="148" y="518"/>
      <point x="134" y="518" type="curve" smooth="yes"/>
      <point x="121" y="518"/>
      <point x="109" y="507"/>
      <point x="109" y="493" type="curve" smooth="yes"/>
      <point x="109" y="392" type="line"/>
      <point x="46" y="392" type="line" smooth="yes"/>
      <point x="33" y="392"/>
      <point x="21" y="381"/>
      <point x="21" y="367" type="curve" smooth="yes"/>
      <point x="21" y="354"/>
      <point x="33" y="342"/>
      <point x="46" y="342" type="curve" smooth="yes"/>
      <point x="109" y="342" type="line"/>
      <point x="109" y="142" type="line" smooth="yes"/>
      <point x="109" y="55"/>
      <point x="156" y="0"/>
    </contour>
    <contour>
      <point x="202" y="0" type="move" name="bottom"/>
    </contour>
  </outline>
</glyph>
<glyph name="guillemetleft" format="1">
  <advance width="438"/>
  <unicode hex="00AB"/>
  <note>
    guillemotleft
  </note>
  <outline>
    <contour>
      <point x="182" y="16" type="curve" smooth="yes"/>
      <point x="196" y="16"/>
      <point x="207" y="28"/>
      <point x="207" y="41" type="curve" smooth="yes"/>
      <point x="207" y="46"/>
      <point x="205" y="52"/>
      <point x="202" y="56" type="curve" smooth="yes"/>
      <point x="100" y="194" type="line"/>
      <point x="202" y="331" type="line" smooth="yes"/>
      <point x="205" y="335"/>
      <point x="207" y="341"/>
      <point x="207" y="346" type="curve" smooth="yes"/>
      <point x="207" y="359"/>
      <point x="196" y="371"/>
      <point x="182" y="371" type="curve" smooth="yes"/>
      <point x="174" y="371"/>
      <point x="167" y="368"/>
      <point x="162" y="361" type="curve" smooth="yes"/>
      <point x="51" y="211" type="line" smooth="yes"/>
      <point x="48" y="207"/>
      <point x="46" y="201"/>
      <point x="46" y="196" type="curve" smooth="yes"/>
      <point x="46" y="191" type="line" smooth="yes"/>
      <point x="46" y="186"/>
      <point x="48" y="180"/>
      <point x="51" y="176" type="curve" smooth="yes"/>
      <point x="162" y="26" type="line" smooth="yes"/>
      <point x="167" y="19"/>
      <point x="174" y="16"/>
    </contour>
    <contour>
      <point x="352" y="16" type="curve" smooth="yes"/>
      <point x="366" y="16"/>
      <point x="377" y="28"/>
      <point x="377" y="41" type="curve" smooth="yes"/>
      <point x="377" y="46"/>
      <point x="375" y="52"/>
      <point x="372" y="56" type="curve" smooth="yes"/>
      <point x="270" y="194" type="line"/>
      <point x="372" y="331" type="line" smooth="yes"/>
      <point x="375" y="335"/>
      <point x="377" y="341"/>
      <point x="377" y="346" type="curve" smooth="yes"/>
      <point x="377" y="359"/>
      <point x="366" y="371"/>
      <point x="352" y="371" type="curve" smooth="yes"/>
      <point x="344" y="371"/>
      <point x="337" y="368"/>
      <point x="332" y="361" type="curve" smooth="yes"/>
      <point x="221" y="211" type="line" smooth="yes"/>
      <point x="218" y="207"/>
      <point x="216" y="201"/>
      <point x="216" y="196" type="curve" smooth="yes"/>
      <point x="216" y="191" type="line" smooth="yes"/>
      <point x="216" y="186"/>
      <point x="218" y="180"/>
      <point x="221" y="176" type="curve" smooth="yes"/>
      <point x="332" y="26" type="line" smooth="yes"/>
      <point x="337" y="19"/>
      <point x="344" y="16"/>
    </contour>
  </outline>
</glyph>
<glyph name="registered" format="1">
  <advance width="560"/>
  <unicode hex="00AE"/>
  <note>
    registered
  </note>
  <outline>
    <contour>
      <point x="277" y="623" type="curve" smooth="yes"/>
      <point x="150" y="623"/>
      <point x="63" y="535"/>
      <point x="63" y="408" type="curve" smooth="yes"/>
      <point x="63" y="288"/>
      <point x="150" y="186"/>
      <point x="284" y="186" type="curve" smooth="yes"/>
      <point x="410" y="186"/>
      <point x="503" y="279"/>
      <point x="503" y="405" type="curve" smooth="yes"/>
      <point x="503" y="529"/>
      <point x="412" y="623"/>
    </contour>
    <contour>
      <point x="277" y="579" type="curve" smooth="yes"/>
      <point x="384" y="579"/>
      <point x="459" y="505"/>
      <point x="459" y="405" type="curve" smooth="yes"/>
      <point x="459" y="305"/>
      <point x="384" y="230"/>
      <point x="284" y="230" type="curve" smooth="yes"/>
      <point x="176" y="230"/>
      <point x="107" y="312"/>
      <point x="107" y="408" type="curve" smooth="yes"/>
      <point x="107" y="509"/>
      <point x="176" y="579"/>
    </contour>
    <contour>
      <point x="356" y="296" type="curve" smooth="yes"/>
      <point x="368" y="296"/>
      <point x="378" y="307"/>
      <point x="378" y="318" type="curve" smooth="yes"/>
      <point x="378" y="323"/>
      <point x="376" y="328"/>
      <point x="373" y="332" type="curve" smooth="yes"/>
      <point x="338" y="373" type="line"/>
      <point x="358" y="388"/>
      <point x="367" y="412"/>
      <point x="367" y="438" type="curve" smooth="yes"/>
      <point x="367" y="485"/>
      <point x="335" y="516"/>
      <point x="282" y="516" type="curve" smooth="yes"/>
      <point x="225" y="516" type="line" smooth="yes"/>
      <point x="213" y="516"/>
      <point x="203" y="506"/>
      <point x="203" y="494" type="curve" smooth="yes"/>
      <point x="203" y="318" type="line" smooth="yes"/>
      <point x="203" y="306"/>
      <point x="213" y="296"/>
      <point x="225" y="296" type="curve" smooth="yes"/>
      <point x="237" y="296"/>
      <point x="247" y="306"/>
      <point x="247" y="318" type="curve" smooth="yes"/>
      <point x="247" y="357" type="line"/>
      <point x="294" y="357" type="line"/>
      <point x="339" y="304" type="line" smooth="yes"/>
      <point x="344" y="299"/>
      <point x="350" y="296"/>
    </contour>
    <contour>
      <point x="282" y="472" type="line" smooth="yes"/>
      <point x="305" y="472"/>
      <point x="323" y="461"/>
      <point x="323" y="438" type="curve" smooth="yes"/>
      <point x="323" y="417"/>
      <point x="309" y="401"/>
      <point x="282" y="401" type="curve" smooth="yes"/>
      <point x="247" y="401" type="line"/>
      <point x="247" y="472" type="line"/>
    </contour>
  </outline>
</glyph>
<glyph name="dcaron" format="1">
  <advance width="631"/>
  <unicode hex="010F"/>
  <note>
    dcaron
  </note>
  <outline>
    <contour>
      <point x="606" y="523" type="line" smooth="yes"/>
      <point x="608" y="537"/>
      <point x="611" y="559"/>
      <point x="611" y="563" type="curve" smooth="yes"/>
      <point x="611" y="575"/>
      <point x="602" y="588"/>
      <point x="586" y="588" type="curve" smooth="yes"/>
      <point x="574" y="588"/>
      <point x="563" y="581"/>
      <point x="561" y="567" type="curve" smooth="yes"/>
      <point x="544" y="449" type="line" smooth="yes"/>
      <point x="542" y="437"/>
      <point x="541" y="427"/>
      <point x="541" y="424" type="curve" smooth="yes"/>
      <point x="541" y="410"/>
      <point x="553" y="399"/>
      <point x="566" y="399" type="curve" smooth="yes"/>
      <point x="578" y="399"/>
      <point x="589" y="408"/>
      <point x="591" y="420" type="curve" smooth="yes"/>
    </contour>
    <contour>
      <point x="395" y="0" type="curve" smooth="yes"/>
      <point x="409" y="0"/>
      <point x="420" y="11"/>
      <point x="420" y="25" type="curve" smooth="yes"/>
      <point x="420" y="536" type="line" smooth="yes"/>
      <point x="420" y="550"/>
      <point x="409" y="561"/>
      <point x="395" y="561" type="curve" smooth="yes"/>
      <point x="382" y="561"/>
      <point x="370" y="550"/>
      <point x="370" y="536" type="curve" smooth="yes"/>
      <point x="370" y="356" type="line"/>
      <point x="333" y="379"/>
      <point x="293" y="392"/>
      <point x="245" y="392" type="curve" smooth="yes"/>
      <point x="133" y="392"/>
      <point x="49" y="307"/>
      <point x="49" y="188" type="curve" smooth="yes"/>
      <point x="49" y="73"/>
      <point x="126" y="0"/>
      <point x="224" y="0" type="curve" smooth="yes"/>
      <point x="283" y="0"/>
      <point x="331" y="26"/>
      <point x="370" y="67" type="curve"/>
      <point x="370" y="25" type="line" smooth="yes"/>
      <point x="370" y="12"/>
      <point x="382" y="0"/>
    </contour>
    <contour>
      <point x="224" y="50" type="curve" smooth="yes"/>
      <point x="152" y="50"/>
      <point x="99" y="106"/>
      <point x="99" y="188" type="curve" smooth="yes"/>
      <point x="99" y="277"/>
      <point x="161" y="342"/>
      <point x="245" y="342" type="curve" smooth="yes"/>
      <point x="295" y="342"/>
      <point x="333" y="325"/>
      <point x="370" y="296" type="curve"/>
      <point x="370" y="152" type="line"/>
      <point x="338" y="97"/>
      <point x="291" y="50"/>
    </contour>
  </outline>
</glyph>
<glyph name="gcommaaccent" format="1">
  <advance width="503"/>
  <unicode hex="0123"/>
  <note>
    uni0123
  </note>
  <outline>
    <contour>
      <point x="238" y="495" type="curve" smooth="yes"/>
      <point x="241" y="488"/>
      <point x="249" y="484"/>
      <point x="257" y="484" type="curve" smooth="yes"/>
      <point x="270" y="484"/>
      <point x="279" y="493"/>
      <point x="279" y="506" type="curve" smooth="yes"/>
      <point x="279" y="510"/>
      <point x="278" y="513"/>
      <point x="276" y="517" type="curve" smooth="yes"/>
      <point x="272" y="524"/>
      <point x="270" y="534"/>
      <point x="270" y="543" type="curve" smooth="yes"/>
      <point x="270" y="574"/>
      <point x="297" y="600"/>
      <point x="334" y="617" type="curve" smooth="yes"/>
      <point x="342" y="621"/>
      <point x="347" y="629"/>
      <point x="347" y="637" type="curve" smooth="yes"/>
      <point x="347" y="649"/>
      <point x="336" y="659"/>
      <point x="325" y="659" type="curve" smooth="yes"/>
      <point x="322" y="659"/>
      <point x="319" y="658"/>
      <point x="316" y="657" type="curve" smooth="yes"/>
      <point x="259" y="630"/>
      <point x="226" y="588"/>
      <point x="226" y="543" type="curve" smooth="yes"/>
      <point x="226" y="526"/>
      <point x="230" y="510"/>
    </contour>
    <contour>
      <point x="162" y="-181" type="curve" smooth="yes"/>
      <point x="340" y="-181"/>
      <point x="418" y="-81"/>
      <point x="418" y="71" type="curve" smooth="yes"/>
      <point x="418" y="367" type="line" smooth="yes"/>
      <point x="418" y="381"/>
      <point x="407" y="392"/>
      <point x="393" y="392" type="curve" smooth="yes"/>
      <point x="381" y="392"/>
      <point x="370" y="383"/>
      <point x="368" y="369" type="curve"/>
      <point x="330" y="384"/>
      <point x="296" y="392"/>
      <point x="250" y="392" type="curve" smooth="yes"/>
      <point x="149" y="392"/>
      <point x="49" y="313"/>
      <point x="49" y="187" type="curve" smooth="yes"/>
      <point x="49" y="64"/>
      <point x="133" y="12"/>
      <point x="216" y="12" type="curve" smooth="yes"/>
      <point x="270" y="12"/>
      <point x="324" y="33"/>
      <point x="368" y="75" type="curve"/>
      <point x="368" y="71" type="line" smooth="yes"/>
      <point x="368" y="-51"/>
      <point x="304" y="-131"/>
      <point x="162" y="-131" type="curve" smooth="yes"/>
      <point x="149" y="-131"/>
      <point x="137" y="-143"/>
      <point x="137" y="-156" type="curve" smooth="yes"/>
      <point x="137" y="-170"/>
      <point x="149" y="-181"/>
    </contour>
    <contour>
      <point x="216" y="62" type="curve" smooth="yes"/>
      <point x="157" y="62"/>
      <point x="99" y="100"/>
      <point x="99" y="187" type="curve" smooth="yes"/>
      <point x="99" y="281"/>
      <point x="173" y="342"/>
      <point x="250" y="342" type="curve" smooth="yes"/>
      <point x="297" y="342"/>
      <point x="327" y="333"/>
      <point x="368" y="314" type="curve"/>
      <point x="368" y="152" type="line"/>
      <point x="329" y="94"/>
      <point x="273" y="62"/>
    </contour>
  </outline>
</glyph>
<glyph name="imacron" format="1">
  <advance width="207"/>
  <unicode hex="012B"/>
  <note>
    imacron
  </note>
  <outline>
    <contour>
      <point x="173" y="517" type="line" smooth="yes"/>
      <point x="182" y="517"/>
      <point x="189" y="527"/>
      <point x="189" y="539" type="curve" smooth="yes"/>
      <point x="189" y="551"/>
      <point x="182" y="561"/>
      <point x="173" y="561" type="curve" smooth="yes"/>
      <point x="33" y="561" type="line" smooth="yes"/>
      <point x="24" y="561"/>
      <point x="17" y="551"/>
      <point x="17" y="539" type="curve" smooth="yes"/>
      <point x="17" y="527"/>
      <point x="24" y="517"/>
      <point x="33" y="517" type="curve" smooth="yes"/>
    </contour>
    <contour>
      <point x="78" y="25" type="line" smooth="yes"/>
      <point x="78" y="12"/>
      <point x="89" y="0"/>
      <point x="103" y="0" type="curve" smooth="yes"/>
      <point x="116" y="0"/>
      <point x="128" y="11"/>
      <point x="128" y="25" type="curve" smooth="yes"/>
      <point x="128" y="367" type="line" smooth="yes"/>
      <point x="128" y="381"/>
      <point x="117" y="392"/>
      <point x="103" y="392" type="curve" smooth="yes"/>
      <point x="90" y="392"/>
      <point x="78" y="381"/>
      <point x="78" y="367" type="curve" smooth="yes"/>
    </contour>
  </outline>
</glyph>
<glyph name="idotless" format="1">
  <advance width="232"/>
  <unicode hex="0131"/>
  <note>
    dotlessi
  </note>
  <outline>
    <contour>
      <point x="91" y="25" type="line" smooth="yes"/>
      <point x="91" y="12"/>
      <point x="103" y="0"/>
      <point x="116" y="0" type="curve" smooth="yes"/>
      <point x="130" y="0"/>
      <point x="141" y="11"/>
      <point x="141" y="25" type="curve" smooth="yes"/>
      <point x="141" y="367" type="line" smooth="yes"/>
      <point x="141" y="381"/>
      <point x="130" y="392"/>
      <point x="116" y="392" type="curve" smooth="yes"/>
      <point x="103" y="392"/>
      <point x="91" y="381"/>
      <point x="91" y="367" type="curve" smooth="yes"/>
    </contour>
    <contour>
      <point x="117" y="392" type="move" name="top"/>
    </contour>
  </outline>
</glyph>
<glyph name="Lcaron" format="1">
  <advance width="459"/>
  <unicode hex="013D"/>
  <note>
    Lcaron
  </note>
  <outline>
    <contour>
      <point x="341" y="483" type="line" smooth="yes"/>
      <point x="343" y="497"/>
      <point x="346" y="519"/>
      <point x="346" y="523" type="curve" smooth="yes"/>
      <point x="346" y="535"/>
      <point x="337" y="548"/>
      <point x="321" y="548" type="curve" smooth="yes"/>
      <point x="309" y="548"/>
      <point x="298" y="541"/>
      <point x="296" y="527" type="curve" smooth="yes"/>
      <point x="279" y="409" type="line" smooth="yes"/>
      <point x="277" y="397"/>
      <point x="276" y="387"/>
      <point x="276" y="384" type="curve" smooth="yes"/>
      <point x="276" y="370"/>
      <point x="288" y="359"/>
      <point x="301" y="359" type="curve" smooth="yes"/>
      <point x="313" y="359"/>
      <point x="324" y="368"/>
      <point x="326" y="380" type="curve" smooth="yes"/>
    </contour>
    <component base="L"/>
  </outline>
</glyph>
<glyph name="Lslash" format="1">
  <advance width="474"/>
  <unicode hex="0141"/>
  <note>
    Lslash
  </note>
  <outline>
    <contour>
      <point x="409" y="0" type="line"/>
      <point x="423" y="0"/>
      <point x="434" y="12"/>
      <point x="434" y="25" type="curve" smooth="yes"/>
      <point x="434" y="39"/>
      <point x="423" y="50"/>
      <point x="409" y="50" type="curve" smooth="yes"/>
      <point x="163" y="50" type="line"/>
      <point x="163" y="241" type="line"/>
      <point x="291" y="326" type="line" smooth="yes"/>
      <point x="298" y="331"/>
      <point x="302" y="339"/>
      <point x="302" y="348" type="curve" smooth="yes"/>
      <point x="302" y="359"/>
      <point x="291" y="372"/>
      <point x="276" y="372" type="curve" smooth="yes"/>
      <point x="272" y="372"/>
      <point x="267" y="371"/>
      <point x="263" y="368" type="curve" smooth="yes"/>
      <point x="163" y="302" type="line"/>
      <point x="163" y="510" type="line" smooth="yes"/>
      <point x="163" y="524"/>
      <point x="152" y="535"/>
      <point x="138" y="535" type="curve" smooth="yes"/>
      <point x="125" y="535"/>
      <point x="113" y="524"/>
      <point x="113" y="510" type="curve" smooth="yes"/>
      <point x="113" y="269" type="line"/>
      <point x="48" y="226" type="line" smooth="yes"/>
      <point x="41" y="221"/>
      <point x="37" y="213"/>
      <point x="37" y="204" type="curve" smooth="yes"/>
      <point x="37" y="193"/>
      <point x="49" y="180"/>
      <point x="63" y="180" type="curve" smooth="yes"/>
      <point x="67" y="180"/>
      <point x="72" y="181"/>
      <point x="76" y="184" type="curve" smooth="yes"/>
      <point x="113" y="208" type="line"/>
      <point x="113" y="25" type="line" smooth="yes"/>
      <point x="113" y="12"/>
      <point x="125" y="0"/>
      <point x="138" y="0" type="curve" smooth="yes"/>
    </contour>
  </outline>
</glyph>
<glyph name="Omacron" format="1">
  <advance width="640"/>
  <unicode hex="014C"/>
  <note>
    Omacron
  </note>
  <outline>
    <contour>
      <point x="450" y="664" type="line" smooth="yes"/>
      <point x="464" y="664"/>
      <point x="476" y="674"/>
      <point x="476" y="686" type="curve" smooth="yes"/>
      <point x="476" y="698"/>
      <point x="464" y="708"/>
      <point x="450" y="708" type="curve" smooth="yes"/>
      <point x="171" y="708" type="line" smooth="yes"/>
      <point x="157" y="708"/>
      <point x="145" y="698"/>
      <point x="145" y="686" type="curve" smooth="yes"/>
      <point x="145" y="674"/>
      <point x="157" y="664"/>
      <point x="171" y="664" type="curve" smooth="yes"/>
    </contour>
    <component base="O"/>
  </outline>
</glyph>
<glyph name="firsttonechinese" format="1">
  <advance width="430"/>
  <unicode hex="02C9"/>
  <note>
    uni02C9
  </note>
  <outline>
    <contour>
      <point x="289" y="521" type="line" smooth="yes"/>
      <point x="301" y="521"/>
      <point x="311" y="531"/>
      <point x="311" y="543" type="curve" smooth="yes"/>
      <point x="311" y="555"/>
      <point x="301" y="565"/>
      <point x="289" y="565" type="curve" smooth="yes"/>
      <point x="141" y="565" type="line" smooth="yes"/>
      <point x="129" y="565"/>
      <point x="119" y="555"/>
      <point x="119" y="543" type="curve" smooth="yes"/>
      <point x="119" y="531"/>
      <point x="129" y="521"/>
      <point x="141" y="521" type="curve" smooth="yes"/>
    </contour>
  </outline>
</glyph>
<glyph name="acutecomb" format="1">
  <advance width="0"/>
  <unicode hex="0301"/>
  <note>
    acutecmb
  </note>
  <outline>
    <contour>
      <point x="94" y="583" type="curve" smooth="yes"/>
      <point x="98" y="587"/>
      <point x="100" y="593"/>
      <point x="100" y="598" type="curve" smooth="yes"/>
      <point x="100" y="610"/>
      <point x="89" y="621"/>
      <point x="77" y="621" type="curve" smooth="yes"/>
      <point x="71" y="621"/>
      <point x="65" y="619"/>
      <point x="61" y="614" type="curve" smooth="yes"/>
      <point x="34" y="581"/>
      <point x="3" y="551"/>
      <point x="-21" y="519" type="curve" smooth="yes"/>
      <point x="-24" y="515"/>
      <point x="-26" y="510"/>
      <point x="-26" y="505" type="curve" smooth="yes"/>
      <point x="-26" y="494"/>
      <point x="-16" y="482"/>
      <point x="-3" y="482" type="curve" smooth="yes"/>
      <point x="3" y="482"/>
      <point x="10" y="485"/>
      <point x="14" y="490" type="curve" smooth="yes"/>
      <point x="39" y="522"/>
      <point x="65" y="554"/>
    </contour>
    <contour>
      <point x="0" y="392" type="move" name="_top"/>
    </contour>
  </outline>
</glyph>
<glyph name="circumflexcomb" format="1">
  <advance width="0"/>
  <unicode hex="0302"/>
  <note>
    circumflexcmb
  </note>
  <outline>
    <contour>
      <point x="-8" y="616"/>
      <point x="-17" y="613"/>
      <point x="-23" y="607" type="curve" smooth="yes"/>
      <point x="-47" y="585"/>
      <point x="-80" y="552"/>
      <point x="-106" y="523" type="curve" smooth="yes"/>
      <point x="-110" y="518"/>
      <point x="-112" y="513"/>
      <point x="-112" y="507" type="curve" smooth="yes"/>
      <point x="-112" y="494"/>
      <point x="-102" y="486"/>
      <point x="-91" y="486" type="curve" smooth="yes"/>
      <point x="-85" y="486"/>
      <point x="-79" y="488"/>
      <point x="-74" y="493" type="curve" smooth="yes"/>
      <point x="-53" y="514"/>
      <point x="-24" y="544"/>
      <point x="-1" y="567" type="curve"/>
      <point x="22" y="543"/>
      <point x="53" y="512"/>
      <point x="72" y="493" type="curve" smooth="yes"/>
      <point x="77" y="488"/>
      <point x="83" y="486"/>
      <point x="89" y="486" type="curve" smooth="yes"/>
      <point x="101" y="486"/>
      <point x="110" y="495"/>
      <point x="110" y="507" type="curve" smooth="yes"/>
      <point x="110" y="513"/>
      <point x="109" y="518"/>
      <point x="104" y="523" type="curve" smooth="yes"/>
      <point x="79" y="549"/>
      <point x="42" y="586"/>
      <point x="22" y="606" type="curve" smooth="yes"/>
      <point x="15" y="613"/>
      <point x="7" y="616"/>
      <point x="1" y="616" type="curve" smooth="yes"/>
      <point x="-2" y="616" type="line" smooth="yes"/>
    </contour>
    <contour>
      <point x="0" y="392" type="move" name="_top"/>
    </contour>
  </outline>
</glyph>
<glyph name="tildecomb" format="1">
  <advance width="0"/>
  <unicode hex="0303"/>
  <note>
    tildecmb
  </note>
  <outline>
    <contour>
      <point x="-129" y="534" type="curve" smooth="yes"/>
      <point x="-131" y="531"/>
      <point x="-133" y="527"/>
      <point x="-133" y="522" type="curve" smooth="yes"/>
      <point x="-133" y="510"/>
      <point x="-123" y="500"/>
      <point x="-111" y="500" type="curve" smooth="yes"/>
      <point x="-104" y="500"/>
      <point x="-97" y="504"/>
      <point x="-93" y="510" type="curve" smooth="yes"/>
      <point x="-78" y="529"/>
      <point x="-63" y="544"/>
      <point x="-49" y="544" type="curve" smooth="yes"/>
      <point x="-38" y="544"/>
      <point x="-29" y="538"/>
      <point x="-10" y="525" type="curve" smooth="yes"/>
      <point x="16" y="507"/>
      <point x="34" y="499"/>
      <point x="53" y="499" type="curve" smooth="yes"/>
      <point x="79" y="499"/>
      <point x="99" y="516"/>
      <point x="128" y="554" type="curve" smooth="yes"/>
      <point x="131" y="558"/>
      <point x="132" y="562"/>
      <point x="132" y="566" type="curve" smooth="yes"/>
      <point x="132" y="578"/>
      <point x="122" y="588"/>
      <point x="110" y="588" type="curve" smooth="yes"/>
      <point x="103" y="588"/>
      <point x="97" y="583"/>
      <point x="93" y="577" type="curve" smooth="yes"/>
      <point x="77" y="556"/>
      <point x="64" y="543"/>
      <point x="52" y="543" type="curve" smooth="yes"/>
      <point x="43" y="543"/>
      <point x="33" y="548"/>
      <point x="14" y="561" type="curve" smooth="yes"/>
      <point x="-14" y="580"/>
      <point x="-29" y="589"/>
      <point x="-51" y="589" type="curve" smooth="yes"/>
      <point x="-76" y="589"/>
      <point x="-104" y="572"/>
    </contour>
    <contour>
      <point x="0" y="392" type="move" name="_top"/>
    </contour>
  </outline>
</glyph>
<glyph name="macroncomb" format="1">
  <advance width="0"/>
  <unicode hex="0304"/>
  <note>
    macroncmb
  </note>
  <outline>
    <contour>
      <point x="99" y="517" type="line" smooth="yes"/>
      <point x="111" y="517"/>
      <point x="121" y="527"/>
      <point x="121" y="539" type="curve" smooth="yes"/>
      <point x="121" y="551"/>
      <point x="111" y="561"/>
      <point x="99" y="561" type="curve" smooth="yes"/>
      <point x="-102" y="561" type="line" smooth="yes"/>
      <point x="-114" y="561"/>
      <point x="-124" y="551"/>
      <point x="-124" y="539" type="curve" smooth="yes"/>
      <point x="-124" y="527"/>
      <point x="-114" y="517"/>
      <point x="-102" y="517" type="curve" smooth="yes"/>
    </contour>
    <contour>
      <point x="0" y="392" type="move" name="_top"/>
    </contour>
  </outline>
</glyph>
<glyph name="dotaccentcomb" format="1">
  <advance width="0"/>
  <unicode hex="0307"/>
  <note>
    dotaccentcmb
  </note>
  <outline>
    <contour>
      <point x="0" y="596" type="curve" smooth="yes"/>
      <point x="-22" y="596"/>
      <point x="-41" y="576"/>
      <point x="-41" y="548" type="curve" smooth="yes"/>
      <point x="-41" y="520"/>
      <point x="-23" y="502"/>
      <point x="0" y="502" type="curve" smooth="yes"/>
      <point x="21" y="502"/>
      <point x="39" y="518"/>
      <point x="39" y="548" type="curve" smooth="yes"/>
      <point x="39" y="578"/>
      <point x="20" y="596"/>
    </contour>
    <contour>
      <point x="0" y="392" type="move" name="_top"/>
    </contour>
  </outline>
</glyph>
<glyph name="dieresiscomb" format="1">
  <advance width="0"/>
  <unicode hex="0308"/>
  <note>
    dieresiscmb
  </note>
  <outline>
    <contour>
      <point x="85" y="497" type="curve" smooth="yes"/>
      <point x="104" y="497"/>
      <point x="123" y="512"/>
      <point x="123" y="543" type="curve" smooth="yes"/>
      <point x="123" y="574"/>
      <point x="103" y="591"/>
      <point x="85" y="591" type="curve" smooth="yes"/>
      <point x="65" y="591"/>
      <point x="46" y="573"/>
      <point x="46" y="543" type="curve" smooth="yes"/>
      <point x="46" y="513"/>
      <point x="64" y="497"/>
    </contour>
    <contour>
      <point x="-93" y="497" type="curve" smooth="yes"/>
      <point x="-74" y="497"/>
      <point x="-55" y="512"/>
      <point x="-55" y="543" type="curve" smooth="yes"/>
      <point x="-55" y="574"/>
      <point x="-75" y="591"/>
      <point x="-93" y="591" type="curve" smooth="yes"/>
      <point x="-113" y="591"/>
      <point x="-132" y="573"/>
      <point x="-132" y="543" type="curve" smooth="yes"/>
      <point x="-132" y="513"/>
      <point x="-114" y="497"/>
    </contour>
    <contour>
      <point x="0" y="392" type="move" name="_top"/>
    </contour>
  </outline>
</glyph>
<glyph name="commaaccentcomb" format="1">
  <advance width="0"/>
  <unicode hex="0326"/>
  <note>
    commaaccent
  </note>
  <outline>
    <contour>
      <point x="22" y="-91" type="curve" smooth="yes"/>
      <point x="18" y="-84"/>
      <point x="11" y="-80"/>
      <point x="3" y="-80" type="curve" smooth="yes"/>
      <point x="-10" y="-80"/>
      <point x="-19" y="-89"/>
      <point x="-19" y="-102" type="curve" smooth="yes"/>
      <point x="-19" y="-106"/>
      <point x="-18" y="-109"/>
      <point x="-16" y="-113" type="curve" smooth="yes"/>
      <point x="-12" y="-120"/>
      <point x="-10" y="-130"/>
      <point x="-10" y="-139" type="curve" smooth="yes"/>
      <point x="-10" y="-170"/>
      <point x="-38" y="-195"/>
      <point x="-74" y="-213" type="curve" smooth="yes"/>
      <point x="-82" y="-217"/>
      <point x="-87" y="-225"/>
      <point x="-87" y="-233" type="curve" smooth="yes"/>
      <point x="-87" y="-245"/>
      <point x="-76" y="-255"/>
      <point x="-65" y="-255" type="curve" smooth="yes"/>
      <point x="-62" y="-255"/>
      <point x="-59" y="-254"/>
      <point x="-56" y="-253" type="curve" smooth="yes"/>
      <point x="4" y="-233"/>
      <point x="34" y="-184"/>
      <point x="34" y="-139" type="curve" smooth="yes"/>
      <point x="34" y="-122"/>
      <point x="30" y="-106"/>
    </contour>
    <contour>
      <point x="0" y="0" type="move" name="_bottom"/>
    </contour>
  </outline>
</glyph>
<glyph name="ogonekcomb" format="1">
  <advance width="0"/>
  <unicode hex="0328"/>
  <note>
    ogonekcmb
  </note>
  <outline>
    <contour>
      <point x="-9" y="-221" type="curve" smooth="yes"/>
      <point x="3" y="-221"/>
      <point x="13" y="-211"/>
      <point x="13" y="-199" type="curve" smooth="yes"/>
      <point x="13" y="-187"/>
      <point x="3" y="-177"/>
      <point x="-9" y="-177" type="curve" smooth="yes"/>
      <point x="-58" y="-177"/>
      <point x="-105" y="-167"/>
      <point x="-105" y="-139" type="curve" smooth="yes"/>
      <point x="-105" y="-115"/>
      <point x="-84" y="-92"/>
      <point x="-10" y="-31" type="curve" smooth="yes"/>
      <point x="-6" y="-27"/>
      <point x="-2" y="-20"/>
      <point x="-2" y="-14" type="curve" smooth="yes"/>
      <point x="-2" y="21" type="line" smooth="yes"/>
      <point x="-2" y="33"/>
      <point x="-12" y="43"/>
      <point x="-24" y="43" type="curve" smooth="yes"/>
      <point x="-36" y="43"/>
      <point x="-46" y="33"/>
      <point x="-46" y="21" type="curve" smooth="yes"/>
      <point x="-46" y="-4" type="line"/>
      <point x="-137" y="-78"/>
      <point x="-149" y="-110"/>
      <point x="-149" y="-139" type="curve" smooth="yes"/>
      <point x="-149" y="-181"/>
      <point x="-116" y="-221"/>
    </contour>
  </outline>
</glyph>
<glyph name="dda-kannada" format="1">
  <advance width="755"/>
  <unicode hex="0CA1"/>
  <note>
    knDDA
  </note>
  <outline>
    <component base="dda-kannada.base"/>
    <component base="hook-kannada" xOffset="7"/>
    <contour>
      <point x="372" y="0" type="move" name="bottom"/>
    </contour>
  </outline>
</glyph>
<glyph name="ya-kannada" format="1">
  <advance width="1219"/>
  <unicode hex="0CAF"/>
  <note>
    knYA
  </note>
  <outline>
    <contour>
      <point x="185" y="42"/>
      <point x="113" y="119"/>
      <point x="113" y="223" type="curve" smooth="yes"/>
      <point x="113" y="317"/>
      <point x="193" y="410"/>
      <point x="301" y="410" type="curve" smooth="yes"/>
      <point x="411" y="410"/>
      <point x="489" y="315"/>
      <point x="489" y="223" type="curve" smooth="yes"/>
      <point x="489" y="121"/>
      <point x="415" y="42"/>
      <point x="301" y="42" type="curve" smooth="yes"/>
    </contour>
    <contour>
      <point x="661" y="456" type="line"/>
      <point x="589" y="456" type="line" smooth="yes"/>
      <point x="577" y="456"/>
      <point x="566" y="445"/>
      <point x="566" y="433" type="curve" smooth="yes"/>
      <point x="566" y="421"/>
      <point x="577" y="410"/>
      <point x="589" y="410" type="curve" smooth="yes"/>
      <point x="661" y="410" type="line"/>
    </contour>
    <contour>
      <point x="439" y="-4"/>
      <point x="535" y="90"/>
      <point x="535" y="223" type="curve" smooth="yes"/>
      <point x="535" y="337"/>
      <point x="437" y="456"/>
      <point x="301" y="456" type="curve" smooth="yes"/>
      <point x="167" y="456"/>
      <point x="67" y="339"/>
      <point x="67" y="223" type="curve" smooth="yes"/>
      <point x="67" y="93"/>
      <point x="155" y="-4"/>
      <point x="301" y="-4" type="curve" smooth="yes"/>
    </contour>
    <component base="uMatra-kannada.base" xOffset="592"/>
    <component base="uMatra-kannada" xOffset="903"/>
    <component base="hook-kannada" xOffset="180"/>
  </outline>
</glyph>
<glyph name="nukta-kannada" format="1">
  <advance width="0"/>
  <unicode hex="0CBC"/>
  <note>
    knNukta
  </note>
  <outline>
    <contour>
      <point x="-212" y="-96" type="curve" smooth="yes"/>
      <point x="-240" y="-96"/>
      <point x="-257" y="-118"/>
      <point x="-257" y="-150" type="curve" smooth="yes"/>
      <point x="-257" y="-187"/>
      <point x="-233" y="-204"/>
      <point x="-211" y="-204" type="curve" smooth="yes"/>
      <point x="-185" y="-204"/>
      <point x="-166" y="-188"/>
      <point x="-166" y="-150" type="curve" smooth="yes"/>
      <point x="-166" y="-119"/>
      <point x="-186" y="-96"/>
    </contour>
    <contour>
      <point x="-482" y="-96" type="curve" smooth="yes"/>
      <point x="-510" y="-96"/>
      <point x="-527" y="-118"/>
      <point x="-527" y="-150" type="curve" smooth="yes"/>
      <point x="-527" y="-187"/>
      <point x="-503" y="-204"/>
      <point x="-481" y="-204" type="curve" smooth="yes"/>
      <point x="-455" y="-204"/>
      <point x="-436" y="-188"/>
      <point x="-436" y="-150" type="curve" smooth="yes"/>
      <point x="-436" y="-119"/>
      <point x="-456" y="-96"/>
    </contour>
  </outline>
</glyph>
<glyph name="iMatra-kannada" format="1">
  <advance width="0"/>
  <unicode hex="0CBF"/>
  <note>
    knsignI
  </note>
  <outline>
    <contour>
      <point x="-358" y="283" type="curve" smooth="yes"/>
      <point x="-223" y="283"/>
      <point x="-153" y="368"/>
      <point x="-153" y="473" type="curve" smooth="yes"/>
      <point x="-153" y="563"/>
      <point x="-213" y="634"/>
      <point x="-297" y="634" type="curve" smooth="yes"/>
      <point x="-368" y="634"/>
      <point x="-411" y="582"/>
      <point x="-411" y="526" type="curve" smooth="yes"/>
      <point x="-411" y="468"/>
      <point x="-365" y="423"/>
      <point x="-303" y="423" type="curve" smooth="yes"/>
      <point x="-263" y="423"/>
      <point x="-230" y="435"/>
      <point x="-198" y="465" type="curve"/>
      <point x="-200" y="386"/>
      <point x="-259" y="329"/>
      <point x="-358" y="329" type="curve" smooth="yes"/>
      <point x="-370" y="329"/>
      <point x="-381" y="318"/>
      <point x="-381" y="306" type="curve" smooth="yes"/>
      <point x="-381" y="294"/>
      <point x="-370" y="283"/>
    </contour>
    <contour>
      <point x="-303" y="469" type="curve" smooth="yes"/>
      <point x="-339" y="469"/>
      <point x="-365" y="492"/>
      <point x="-365" y="526" type="curve" smooth="yes"/>
      <point x="-365" y="560"/>
      <point x="-338" y="588"/>
      <point x="-297" y="588" type="curve" smooth="yes"/>
      <point x="-256" y="588"/>
      <point x="-222" y="557"/>
      <point x="-208" y="517" type="curve"/>
      <point x="-231" y="486"/>
      <point x="-264" y="469"/>
    </contour>
  </outline>
</glyph>
<glyph name="uuMatra-kannada" format="1">
  <advance width="607"/>
  <unicode hex="0CC2"/>
  <note>
    knsignUU
  </note>
  <outline>
    <contour>
      <point x="494" y="93"/>
      <point x="460" y="42"/>
      <point x="407" y="42" type="curve" smooth="yes"/>
      <point x="366" y="42"/>
      <point x="341" y="72"/>
      <point x="341" y="106" type="curve" smooth="yes"/>
      <point x="341" y="149"/>
      <point x="371" y="183"/>
      <point x="428" y="183" type="curve" smooth="yes"/>
      <point x="451" y="183"/>
      <point x="474" y="178"/>
      <point x="494" y="172" type="curve"/>
      <point x="494" y="167" type="line" smooth="yes"/>
    </contour>
    <contour>
      <point x="295" y="48"/>
      <point x="336" y="-4"/>
      <point x="407" y="-4" type="curve" smooth="yes"/>
      <point x="480" y="-4"/>
      <point x="540" y="55"/>
      <point x="540" y="167" type="curve" smooth="yes"/>
      <point x="540" y="354"/>
      <point x="401" y="456"/>
      <point x="291" y="456" type="curve" smooth="yes"/>
      <point x="182" y="456"/>
      <point x="126" y="366"/>
      <point x="126" y="288" type="curve" smooth="yes"/>
      <point x="126" y="228"/>
      <point x="151" y="178"/>
      <point x="151" y="125" type="curve" smooth="yes"/>
      <point x="151" y="78"/>
      <point x="126" y="46"/>
      <point x="73" y="46" type="curve" smooth="yes"/>
      <point x="18" y="46"/>
      <point x="-34" y="89"/>
      <point x="-82" y="173" type="curve"/>
      <point x="-96" y="115" type="line"/>
      <point x="-44" y="33"/>
      <point x="13" y="0"/>
      <point x="73" y="0" type="curve" smooth="yes"/>
      <point x="156" y="0"/>
      <point x="197" y="50"/>
      <point x="197" y="125" type="curve" smooth="yes"/>
      <point x="197" y="178"/>
      <point x="172" y="228"/>
      <point x="172" y="288" type="curve" smooth="yes"/>
      <point x="172" y="344"/>
      <point x="212" y="410"/>
      <point x="291" y="410" type="curve" smooth="yes"/>
      <point x="371" y="410"/>
      <point x="466" y="341"/>
      <point x="489" y="221" type="curve"/>
      <point x="469" y="226"/>
      <point x="448" y="229"/>
      <point x="428" y="229" type="curve" smooth="yes"/>
      <point x="337" y="229"/>
      <point x="295" y="171"/>
      <point x="295" y="106" type="curve" smooth="yes"/>
    </contour>
  </outline>
</glyph>
<glyph name="rVocalicMatra-kannada" format="1">
  <advance width="135"/>
  <unicode hex="0CC3"/>
  <note>
    knsignvR
  </note>
  <outline>
    <contour>
      <point x="-145" y="-223" type="curve" smooth="yes"/>
      <point x="-164" y="-223"/>
      <point x="-182" y="-218"/>
      <point x="-197" y="-209" type="curve"/>
      <point x="-193" y="-177"/>
      <point x="-173" y="-152"/>
      <point x="-141" y="-152" type="curve" smooth="yes"/>
      <point x="-115" y="-152"/>
      <point x="-100" y="-167"/>
      <point x="-100" y="-186" type="curve" smooth="yes"/>
      <point x="-100" y="-213"/>
      <point x="-122" y="-223"/>
    </contour>
    <contour>
      <point x="75" y="-324" type="curve" smooth="yes"/>
      <point x="102" y="-297"/>
      <point x="122" y="-255"/>
      <point x="122" y="-194" type="curve" smooth="yes"/>
      <point x="122" y="-135"/>
      <point x="109" y="-47"/>
      <point x="75" y="51" type="curve" smooth="yes"/>
      <point x="72" y="60"/>
      <point x="64" y="65"/>
      <point x="55" y="65" type="curve" smooth="yes"/>
      <point x="42" y="65"/>
      <point x="34" y="55"/>
      <point x="34" y="44" type="curve" smooth="yes"/>
      <point x="34" y="39"/>
      <point x="36" y="33"/>
      <point x="46" y="4" type="curve" smooth="yes"/>
      <point x="65" y="-56"/>
      <point x="80" y="-139"/>
      <point x="80" y="-194" type="curve" smooth="yes"/>
      <point x="80" y="-241"/>
      <point x="66" y="-273"/>
      <point x="45" y="-294" type="curve" smooth="yes"/>
      <point x="22" y="-317"/>
      <point x="-14" y="-330"/>
      <point x="-59" y="-330" type="curve" smooth="yes"/>
      <point x="-110" y="-330"/>
      <point x="-146" y="-316"/>
      <point x="-167" y="-295" type="curve" smooth="yes"/>
      <point x="-178" y="-284"/>
      <point x="-186" y="-272"/>
      <point x="-192" y="-258" type="curve"/>
      <point x="-177" y="-262"/>
      <point x="-161" y="-265"/>
      <point x="-145" y="-265" type="curve" smooth="yes"/>
      <point x="-96" y="-265"/>
      <point x="-58" y="-237"/>
      <point x="-58" y="-186" type="curve" smooth="yes"/>
      <point x="-58" y="-149"/>
      <point x="-83" y="-110"/>
      <point x="-141" y="-110" type="curve" smooth="yes"/>
      <point x="-198" y="-110"/>
      <point x="-240" y="-156"/>
      <point x="-240" y="-223" type="curve" smooth="yes"/>
      <point x="-240" y="-263"/>
      <point x="-224" y="-298"/>
      <point x="-197" y="-325" type="curve" smooth="yes"/>
      <point x="-170" y="-352"/>
      <point x="-124" y="-372"/>
      <point x="-59" y="-372" type="curve" smooth="yes"/>
      <point x="0" y="-372"/>
      <point x="46" y="-353"/>
    </contour>
  </outline>
</glyph>
<glyph name="eMatra-kannada" format="1">
  <advance width="0"/>
  <unicode hex="0CC6"/>
  <note>
    knsignE
  </note>
  <outline>
    <contour>
      <point x="-269" y="410" type="curve" smooth="yes"/>
      <point x="-188" y="410" type="line" smooth="yes"/>
      <point x="-56" y="410"/>
      <point x="-14" y="471"/>
      <point x="-14" y="531" type="curve" smooth="yes"/>
      <point x="-14" y="589"/>
      <point x="-57" y="635"/>
      <point x="-123" y="635" type="curve" smooth="yes"/>
      <point x="-190" y="635"/>
      <point x="-240" y="583"/>
      <point x="-240" y="508" type="curve" smooth="yes"/>
      <point x="-240" y="490"/>
      <point x="-237" y="471"/>
      <point x="-234" y="456" type="curve"/>
      <point x="-269" y="456" type="line" smooth="yes"/>
      <point x="-281" y="456"/>
      <point x="-292" y="445"/>
      <point x="-292" y="433" type="curve" smooth="yes"/>
      <point x="-292" y="421"/>
      <point x="-281" y="410"/>
    </contour>
    <contour>
      <point x="-194" y="508" type="curve" smooth="yes"/>
      <point x="-194" y="553"/>
      <point x="-166" y="589"/>
      <point x="-123" y="589" type="curve" smooth="yes"/>
      <point x="-86" y="589"/>
      <point x="-60" y="566"/>
      <point x="-60" y="531" type="curve" smooth="yes"/>
      <point x="-60" y="483"/>
      <point x="-94" y="456"/>
      <point x="-187" y="456" type="curve"/>
      <point x="-190" y="470"/>
      <point x="-194" y="489"/>
    </contour>
    <contour>
      <point x="-189" y="456" type="move" name="_topright"/>
    </contour>
  </outline>
</glyph>
<glyph name="auMatra-kannada" format="1">
  <advance width="332"/>
  <unicode hex="0CCC"/>
  <note>
    knsignAU
  </note>
  <outline>
    <contour>
      <point x="134" y="201" type="curve" smooth="yes"/>
      <point x="207" y="201"/>
      <point x="267" y="259"/>
      <point x="267" y="367" type="curve" smooth="yes"/>
      <point x="267" y="545"/>
      <point x="153" y="627"/>
      <point x="-7" y="627" type="curve" smooth="yes"/>
      <point x="-231" y="627" type="line" smooth="yes"/>
      <point x="-243" y="627"/>
      <point x="-254" y="616"/>
      <point x="-254" y="604" type="curve" smooth="yes"/>
      <point x="-254" y="592"/>
      <point x="-243" y="581"/>
      <point x="-231" y="581" type="curve" smooth="yes"/>
      <point x="-59" y="581" type="line"/>
      <point x="-61" y="497"/>
      <point x="-110" y="456"/>
      <point x="-195" y="456" type="curve" smooth="yes"/>
      <point x="-207" y="456"/>
      <point x="-218" y="445"/>
      <point x="-218" y="433" type="curve" smooth="yes"/>
      <point x="-218" y="421"/>
      <point x="-207" y="410"/>
      <point x="-195" y="410" type="curve" smooth="yes"/>
      <point x="-88" y="410"/>
      <point x="-19" y="467"/>
      <point x="-13" y="581" type="curve"/>
      <point x="-7" y="581" type="line" smooth="yes"/>
      <point x="107" y="581"/>
      <point x="195" y="531"/>
      <point x="216" y="423" type="curve"/>
      <point x="196" y="427"/>
      <point x="175" y="431"/>
      <point x="155" y="431" type="curve" smooth="yes"/>
      <point x="66" y="431"/>
      <point x="22" y="375"/>
      <point x="22" y="310" type="curve" smooth="yes"/>
      <point x="22" y="250"/>
      <point x="65" y="201"/>
    </contour>
    <contour>
      <point x="134" y="247" type="curve" smooth="yes"/>
      <point x="95" y="247"/>
      <point x="68" y="274"/>
      <point x="68" y="310" type="curve" smooth="yes"/>
      <point x="68" y="353"/>
      <point x="98" y="385"/>
      <point x="155" y="385" type="curve" smooth="yes"/>
      <point x="178" y="385"/>
      <point x="201" y="380"/>
      <point x="221" y="374" type="curve"/>
      <point x="221" y="367"/>
      <point x="221" y="367"/>
      <point x="221" y="367" type="curve"/>
      <point x="221" y="297"/>
      <point x="187" y="247"/>
    </contour>
  </outline>
</glyph>
<glyph name="zero-kannada" format="1">
  <advance width="577"/>
  <unicode hex="0CE6"/>
  <note>
    knZero
  </note>
  <outline>
    <contour>
      <point x="290" y="471" type="curve" smooth="yes"/>
      <point x="159" y="471"/>
      <point x="67" y="373"/>
      <point x="67" y="231" type="curve" smooth="yes"/>
      <point x="67" y="101"/>
      <point x="162" y="-7"/>
      <point x="290" y="-7" type="curve" smooth="yes"/>
      <point x="429" y="-7"/>
      <point x="510" y="100"/>
      <point x="510" y="233" type="curve" smooth="yes"/>
      <point x="510" y="373"/>
      <point x="411" y="471"/>
    </contour>
    <contour>
      <point x="290" y="425" type="curve" smooth="yes"/>
      <point x="387" y="425"/>
      <point x="464" y="343"/>
      <point x="464" y="233" type="curve" smooth="yes"/>
      <point x="464" y="128"/>
      <point x="403" y="39"/>
      <point x="290" y="39" type="curve" smooth="yes"/>
      <point x="186" y="39"/>
      <point x="113" y="127"/>
      <point x="113" y="231" type="curve" smooth="yes"/>
      <point x="113" y="343"/>
      <point x="185" y="425"/>
    </contour>
  </outline>
</glyph>
<glyph name="zerowidthjoiner" format="1">
  <advance width="0"/>
  <unicode hex="200D"/>
  <note>
    zerowidthjoiner
  </note>
  <outline>
    <contour>
      <point x="18" y="-290" type="curve" smooth="yes"/>
      <point x="18" y="604" type="line"/>
      <point x="74" y="548" type="line"/>
      <point x="79" y="544"/>
      <point x="84" y="541"/>
      <point x="90" y="541" type="curve" smooth="yes"/>
      <point x="104" y="541"/>
      <point x="113" y="553"/>
      <point x="113" y="564" type="curve" smooth="yes"/>
      <point x="113" y="570"/>
      <point x="111" y="576"/>
      <point x="106" y="580" type="curve"/>
      <point x="27" y="659" type="line"/>
      <point x="106" y="738" type="line" smooth="yes"/>
      <point x="111" y="743"/>
      <point x="113" y="748"/>
      <point x="113" y="754" type="curve" smooth="yes"/>
      <point x="113" y="766"/>
      <point x="102" y="777"/>
      <point x="90" y="777" type="curve" smooth="yes"/>
      <point x="84" y="777"/>
      <point x="79" y="775"/>
      <point x="74" y="770" type="curve" smooth="yes"/>
      <point x="-5" y="691" type="line"/>
      <point x="-84" y="770" type="line" smooth="yes"/>
      <point x="-89" y="775"/>
      <point x="-94" y="777"/>
      <point x="-100" y="777" type="curve" smooth="yes"/>
      <point x="-112" y="777"/>
      <point x="-123" y="766"/>
      <point x="-123" y="754" type="curve" smooth="yes"/>
      <point x="-123" y="748"/>
      <point x="-121" y="743"/>
      <point x="-116" y="738" type="curve" smooth="yes"/>
      <point x="-37" y="659" type="line"/>
      <point x="-116" y="580" type="line"/>
      <point x="-121" y="576"/>
      <point x="-123" y="570"/>
      <point x="-123" y="564" type="curve" smooth="yes"/>
      <point x="-123" y="553"/>
      <point x="-114" y="541"/>
      <point x="-100" y="541" type="curve" smooth="yes"/>
      <point x="-94" y="541"/>
      <point x="-89" y="544"/>
      <point x="-84" y="548" type="curve"/>
      <point x="-28" y="604" type="line"/>
      <point x="-28" y="-290" type="line" smooth="yes"/>
      <point x="-28" y="-302"/>
      <point x="-17" y="-313"/>
      <point x="-5" y="-313" type="curve" smooth="yes"/>
      <point x="7" y="-313"/>
      <point x="18" y="-302"/>
    </contour>
  </outline>
</glyph>
<glyph name="emdash" format="1">
  <advance width="763"/>
  <unicode hex="2014"/>
  <note>
    emdash
  </note>
  <outline>
    <contour>
      <point x="109" y="245" type="line" smooth="yes"/>
      <point x="96" y="245"/>
      <point x="84" y="234"/>
      <point x="84" y="220" type="curve" smooth="yes"/>
      <point x="84" y="207"/>
      <point x="96" y="195"/>
      <point x="109" y="195" type="curve" smooth="yes"/>
      <point x="654" y="195" type="line" smooth="yes"/>
      <point x="668" y="195"/>
      <point x="679" y="207"/>
      <point x="679" y="220" type="curve" smooth="yes"/>
      <point x="679" y="234"/>
      <point x="668" y="245"/>
      <point x="654" y="245" type="curve" smooth="yes"/>
    </contour>
  </outline>
</glyph>
<glyph name="ruble" format="1">
  <advance width="532"/>
  <unicode hex="20BD"/>
  <note>
    uni20BD
  </note>
  <outline>
    <contour>
      <point x="293" y="485" type="line" smooth="yes"/>
      <point x="372" y="485"/>
      <point x="427" y="449"/>
      <point x="427" y="387" type="curve" smooth="yes"/>
      <point x="427" y="331"/>
      <point x="381" y="289"/>
      <point x="293" y="289" type="curve" smooth="yes"/>
      <point x="183" y="289" type="line"/>
      <point x="183" y="485" type="line"/>
    </contour>
    <contour>
      <point x="158" y="0" type="curve" smooth="yes"/>
      <point x="172" y="0"/>
      <point x="183" y="11"/>
      <point x="183" y="25" type="curve" smooth="yes"/>
      <point x="183" y="90" type="line"/>
      <point x="326" y="90" type="line" smooth="yes"/>
      <point x="340" y="90"/>
      <point x="351" y="102"/>
      <point x="351" y="115" type="curve" smooth="yes"/>
      <point x="351" y="129"/>
      <point x="340" y="140"/>
      <point x="326" y="140" type="curve" smooth="yes"/>
      <point x="183" y="140" type="line"/>
      <point x="183" y="239" type="line"/>
      <point x="293" y="239" type="line" smooth="yes"/>
      <point x="427" y="239"/>
      <point x="477" y="309"/>
      <point x="477" y="387" type="curve" smooth="yes"/>
      <point x="477" y="471"/>
      <point x="412" y="535"/>
      <point x="293" y="535" type="curve" smooth="yes"/>
      <point x="158" y="535" type="line" smooth="yes"/>
      <point x="144" y="535"/>
      <point x="133" y="524"/>
      <point x="133" y="510" type="curve" smooth="yes"/>
      <point x="133" y="289" type="line"/>
      <point x="65" y="289" type="line" smooth="yes"/>
      <point x="52" y="289"/>
      <point x="40" y="278"/>
      <point x="40" y="264" type="curve" smooth="yes"/>
      <point x="40" y="251"/>
      <point x="52" y="239"/>
      <point x="65" y="239" type="curve" smooth="yes"/>
      <point x="133" y="239" type="line"/>
      <point x="133" y="140" type="line"/>
      <point x="64" y="140" type="line" smooth="yes"/>
      <point x="51" y="140"/>
      <point x="39" y="129"/>
      <point x="39" y="115" type="curve" smooth="yes"/>
      <point x="39" y="102"/>
      <point x="51" y="90"/>
      <point x="64" y="90" type="curve" smooth="yes"/>
      <point x="133" y="90" type="line"/>
      <point x="133" y="25" type="line" smooth="yes"/>
      <point x="133" y="12"/>
      <point x="145" y="0"/>
    </contour>
  </outline>
</glyph>
<glyph name="acutecomb.case" format="1">
  <advance width="0"/>
  <note>
    acutecmb.cap
  </note>
  <outline>
    <contour>
      <point x="119" y="708" type="curve" smooth="yes"/>
      <point x="126" y="712"/>
      <point x="130" y="720"/>
      <point x="130" y="728" type="curve" smooth="yes"/>
      <point x="130" y="739"/>
      <point x="121" y="750"/>
      <point x="107" y="750" type="curve" smooth="yes"/>
      <point x="104" y="750"/>
      <point x="100" y="749"/>
      <point x="97" y="747" type="curve" smooth="yes"/>
      <point x="52" y="717"/>
      <point x="2" y="687"/>
      <point x="-28" y="667" type="curve" smooth="yes"/>
      <point x="-34" y="663"/>
      <point x="-37" y="656"/>
      <point x="-37" y="649" type="curve" smooth="yes"/>
      <point x="-37" y="637"/>
      <point x="-28" y="626"/>
      <point x="-15" y="626" type="curve" smooth="yes"/>
      <point x="-11" y="626"/>
      <point x="-6" y="627"/>
      <point x="-2" y="630" type="curve" smooth="yes"/>
      <point x="26" y="651"/>
      <point x="74" y="681"/>
    </contour>
    <contour>
      <point x="0" y="535" type="move" name="_top"/>
    </contour>
  </outline>
</glyph>
<glyph name="bi-kannada" format="1">
  <advance width="769"/>
  <note>
    knBI
  </note>
  <outline>
    <contour>
      <point x="425" y="469" type="curve" smooth="yes"/>
      <point x="384" y="469"/>
      <point x="360" y="497"/>
      <point x="360" y="527" type="curve" smooth="yes"/>
      <point x="360" y="555"/>
      <point x="383" y="588"/>
      <point x="427" y="588" type="curve" smooth="yes"/>
      <point x="462" y="588"/>
      <point x="491" y="574"/>
      <point x="529" y="538" type="curve"/>
      <point x="499" y="493"/>
      <point x="466" y="469"/>
    </contour>
    <contour>
      <point x="536" y="0" type="curve" smooth="yes"/>
      <point x="629" y="0"/>
      <point x="702" y="58"/>
      <point x="702" y="229" type="curve" smooth="yes"/>
      <point x="702" y="335"/>
      <point x="651" y="481"/>
      <point x="571" y="561" type="curve" smooth="yes"/>
      <point x="516" y="616"/>
      <point x="475" y="634"/>
      <point x="427" y="634" type="curve" smooth="yes"/>
      <point x="351" y="634"/>
      <point x="314" y="575"/>
      <point x="314" y="527" type="curve" smooth="yes"/>
      <point x="314" y="475"/>
      <point x="352" y="423"/>
      <point x="425" y="423" type="curve" smooth="yes"/>
      <point x="477" y="423"/>
      <point x="521" y="448"/>
      <point x="561" y="504" type="curve"/>
      <point x="620" y="429"/>
      <point x="656" y="315"/>
      <point x="656" y="229" type="curve" smooth="yes"/>
      <point x="656" y="106"/>
      <point x="611" y="46"/>
      <point x="536" y="46" type="curve" smooth="yes"/>
      <point x="478" y="46"/>
      <point x="438" y="76"/>
      <point x="404" y="135" type="curve" smooth="yes"/>
      <point x="400" y="142"/>
      <point x="391" y="147"/>
      <point x="384" y="147" type="curve" smooth="yes"/>
      <point x="379" y="147" type="line" smooth="yes"/>
      <point x="372" y="147"/>
      <point x="363" y="142"/>
      <point x="359" y="136" type="curve" smooth="yes"/>
      <point x="323" y="77"/>
      <point x="281" y="46"/>
      <point x="222" y="46" type="curve" smooth="yes"/>
      <point x="165" y="46"/>
      <point x="133" y="81"/>
      <point x="133" y="125" type="curve" smooth="yes"/>
      <point x="133" y="167"/>
      <point x="162" y="202"/>
      <point x="203" y="235" type="curve" smooth="yes"/>
      <point x="269" y="288"/>
      <point x="291" y="327"/>
      <point x="291" y="371" type="curve" smooth="yes"/>
      <point x="291" y="426"/>
      <point x="251" y="471"/>
      <point x="183" y="471" type="curve" smooth="yes"/>
      <point x="140" y="471"/>
      <point x="105" y="451"/>
      <point x="75" y="417" type="curve" smooth="yes"/>
      <point x="71" y="413"/>
      <point x="69" y="407"/>
      <point x="69" y="402" type="curve" smooth="yes"/>
      <point x="69" y="389"/>
      <point x="80" y="379"/>
      <point x="92" y="379" type="curve" smooth="yes"/>
      <point x="99" y="379"/>
      <point x="105" y="382"/>
      <point x="109" y="387" type="curve" smooth="yes"/>
      <point x="129" y="409"/>
      <point x="154" y="425"/>
      <point x="183" y="425" type="curve" smooth="yes"/>
      <point x="219" y="425"/>
      <point x="245" y="402"/>
      <point x="245" y="371" type="curve" smooth="yes"/>
      <point x="245" y="337"/>
      <point x="223" y="310"/>
      <point x="175" y="271" type="curve" smooth="yes"/>
      <point x="120" y="226"/>
      <point x="87" y="179"/>
      <point x="87" y="125" type="curve" smooth="yes"/>
      <point x="87" y="59"/>
      <point x="133" y="0"/>
      <point x="222" y="0" type="curve" smooth="yes"/>
      <point x="288" y="0"/>
      <point x="338" y="27"/>
      <point x="381" y="86" type="curve"/>
      <point x="422" y="27"/>
      <point x="471" y="0"/>
    </contour>
    <contour>
      <point x="382" y="0" type="move" name="bottom"/>
    </contour>
  </outline>
</glyph>
<glyph name="caroncomb.case" format="1">
  <advance width="0"/>
  <note>
    caroncmb.cap
  </note>
  <outline>
    <contour>
      <point x="2" y="633"/>
      <point x="8" y="635"/>
      <point x="12" y="638" type="curve" smooth="yes"/>
      <point x="46" y="662"/>
      <point x="82" y="687"/>
      <point x="108" y="708" type="curve" smooth="yes"/>
      <point x="114" y="713"/>
      <point x="117" y="719"/>
      <point x="117" y="726" type="curve" smooth="yes"/>
      <point x="117" y="737"/>
      <point x="108" y="747"/>
      <point x="95" y="747" type="curve" smooth="yes"/>
      <point x="91" y="747"/>
      <point x="86" y="746"/>
      <point x="78" y="740" type="curve" smooth="yes"/>
      <point x="57" y="724"/>
      <point x="26" y="703"/>
      <point x="-5" y="681" type="curve"/>
      <point x="-35" y="703"/>
      <point x="-66" y="724"/>
      <point x="-87" y="740" type="curve" smooth="yes"/>
      <point x="-95" y="746"/>
      <point x="-100" y="747"/>
      <point x="-104" y="747" type="curve" smooth="yes"/>
      <point x="-118" y="747"/>
      <point x="-126" y="737"/>
      <point x="-126" y="726" type="curve" smooth="yes"/>
      <point x="-126" y="719"/>
      <point x="-123" y="713"/>
      <point x="-117" y="708" type="curve" smooth="yes"/>
      <point x="-90" y="686"/>
      <point x="-56" y="662"/>
      <point x="-21" y="638" type="curve" smooth="yes"/>
      <point x="-17" y="635"/>
      <point x="-11" y="633"/>
      <point x="-5" y="633" type="curve" smooth="yes"/>
      <point x="-3" y="633" type="line" smooth="yes"/>
    </contour>
    <contour>
      <point x="0" y="535" type="move" name="_top"/>
    </contour>
  </outline>
</glyph>
<glyph name="cha-kannada.below.following" format="1">
  <advance width="635"/>
  <note>
    knCHAc2.following
  </note>
  <outline>
    <contour>
      <point x="336" y="-229" type="curve" smooth="yes"/>
      <point x="318" y="-229"/>
      <point x="302" y="-224"/>
      <point x="288" y="-216" type="curve"/>
      <point x="296" y="-185"/>
      <point x="315" y="-164"/>
      <point x="339" y="-164" type="curve" smooth="yes"/>
      <point x="360" y="-164"/>
      <point x="375" y="-176"/>
      <point x="375" y="-194" type="curve" smooth="yes"/>
      <point x="375" y="-217"/>
      <point x="360" y="-229"/>
    </contour>
    <contour>
      <point x="658" y="-229" type="curve" smooth="yes"/>
      <point x="658" y="-148"/>
      <point x="630" y="-38"/>
      <point x="594" y="52" type="curve" smooth="yes"/>
      <point x="591" y="60"/>
      <point x="582" y="65"/>
      <point x="573" y="65" type="curve" smooth="yes"/>
      <point x="561" y="65"/>
      <point x="553" y="54"/>
      <point x="553" y="43" type="curve" smooth="yes"/>
      <point x="553" y="41"/>
      <point x="554" y="38"/>
      <point x="568" y="0" type="curve" smooth="yes"/>
      <point x="587" y="-50"/>
      <point x="616" y="-152"/>
      <point x="616" y="-229" type="curve" smooth="yes"/>
      <point x="616" y="-298"/>
      <point x="591" y="-331"/>
      <point x="550" y="-331" type="curve" smooth="yes"/>
      <point x="518" y="-331"/>
      <point x="495" y="-314"/>
      <point x="471" y="-287" type="curve" smooth="yes"/>
      <point x="467" y="-283"/>
      <point x="460" y="-280"/>
      <point x="455" y="-280" type="curve" smooth="yes"/>
      <point x="451" y="-280" type="line" smooth="yes"/>
      <point x="446" y="-280"/>
      <point x="439" y="-283"/>
      <point x="436" y="-286" type="curve" smooth="yes"/>
      <point x="412" y="-311"/>
      <point x="391" y="-331"/>
      <point x="355" y="-331" type="curve" smooth="yes"/>
      <point x="318" y="-331"/>
      <point x="286" y="-306"/>
      <point x="283" y="-260" type="curve"/>
      <point x="299" y="-267"/>
      <point x="317" y="-271"/>
      <point x="336" y="-271" type="curve" smooth="yes"/>
      <point x="388" y="-271"/>
      <point x="417" y="-241"/>
      <point x="417" y="-194" type="curve" smooth="yes"/>
      <point x="417" y="-156"/>
      <point x="390" y="-122"/>
      <point x="339" y="-122" type="curve" smooth="yes"/>
      <point x="290" y="-122"/>
      <point x="241" y="-165"/>
      <point x="241" y="-253" type="curve" smooth="yes"/>
      <point x="241" y="-334"/>
      <point x="294" y="-373"/>
      <point x="355" y="-373" type="curve" smooth="yes"/>
      <point x="396" y="-373"/>
      <point x="425" y="-355"/>
      <point x="453" y="-329" type="curve"/>
      <point x="482" y="-357"/>
      <point x="512" y="-373"/>
      <point x="550" y="-373" type="curve" smooth="yes"/>
      <point x="607" y="-373"/>
      <point x="658" y="-342"/>
    </contour>
    <contour>
      <point x="476" y="-433" type="line" smooth="yes"/>
      <point x="476" y="-422"/>
      <point x="466" y="-412"/>
      <point x="455" y="-412" type="curve" smooth="yes"/>
      <point x="444" y="-412"/>
      <point x="434" y="-422"/>
      <point x="434" y="-433" type="curve" smooth="yes"/>
      <point x="434" y="-502" type="line" smooth="yes"/>
      <point x="434" y="-513"/>
      <point x="444" y="-523"/>
      <point x="455" y="-523" type="curve" smooth="yes"/>
      <point x="466" y="-523"/>
      <point x="476" y="-513"/>
      <point x="476" y="-502" type="curve" smooth="yes"/>
    </contour>
  </outline>
</glyph>
<glyph name="circumflexcomb.case" format="1">
  <advance width="0"/>
  <note>
    circumflexcmb.cap
  </note>
  <outline>
    <contour>
      <point x="95" y="633" type="curve" smooth="yes"/>
      <point x="109" y="633"/>
      <point x="117" y="644"/>
      <point x="117" y="655" type="curve" smooth="yes"/>
      <point x="117" y="662"/>
      <point x="114" y="668"/>
      <point x="108" y="673" type="curve" smooth="yes"/>
      <point x="80" y="695"/>
      <point x="46" y="719"/>
      <point x="12" y="743" type="curve" smooth="yes"/>
      <point x="8" y="746"/>
      <point x="1" y="748"/>
      <point x="-3" y="748" type="curve" smooth="yes"/>
      <point x="-6" y="748" type="line" smooth="yes"/>
      <point x="-10" y="748"/>
      <point x="-17" y="746"/>
      <point x="-21" y="743" type="curve" smooth="yes"/>
      <point x="-54" y="719"/>
      <point x="-89" y="695"/>
      <point x="-117" y="673" type="curve" smooth="yes"/>
      <point x="-123" y="668"/>
      <point x="-126" y="662"/>
      <point x="-126" y="655" type="curve" smooth="yes"/>
      <point x="-126" y="643"/>
      <point x="-117" y="634"/>
      <point x="-104" y="634" type="curve" smooth="yes"/>
      <point x="-100" y="634"/>
      <point x="-95" y="635"/>
      <point x="-91" y="638" type="curve" smooth="yes"/>
      <point x="-66" y="657"/>
      <point x="-35" y="678"/>
      <point x="-4" y="700" type="curve"/>
      <point x="26" y="678"/>
      <point x="55" y="657"/>
      <point x="82" y="638" type="curve" smooth="yes"/>
      <point x="86" y="635"/>
      <point x="91" y="633"/>
    </contour>
    <contour>
      <point x="0" y="535" type="move" name="_top"/>
    </contour>
  </outline>
</glyph>
<glyph name="da-kannada.below.following" format="1">
  <advance width="523"/>
  <note>
    knDAc2.following
  </note>
  <outline>
    <contour>
      <point x="523" y="-376" type="curve" smooth="yes"/>
      <point x="585" y="-376"/>
      <point x="632" y="-336"/>
      <point x="632" y="-275" type="curve" smooth="yes"/>
      <point x="632" y="-213"/>
      <point x="564" y="-106"/>
      <point x="424" y="-106" type="curve" smooth="yes"/>
      <point x="293" y="-106"/>
      <point x="227" y="-212"/>
      <point x="227" y="-275" type="curve" smooth="yes"/>
      <point x="227" y="-339"/>
      <point x="268" y="-376"/>
      <point x="330" y="-376" type="curve" smooth="yes"/>
      <point x="366" y="-376"/>
      <point x="396" y="-364"/>
      <point x="423" y="-337" type="curve"/>
      <point x="453" y="-362"/>
      <point x="479" y="-376"/>
    </contour>
    <contour>
      <point x="424" y="-148" type="curve" smooth="yes"/>
      <point x="530" y="-148"/>
      <point x="590" y="-225"/>
      <point x="590" y="-275" type="curve" smooth="yes"/>
      <point x="590" y="-312"/>
      <point x="559" y="-334"/>
      <point x="523" y="-334" type="curve" smooth="yes"/>
      <point x="484" y="-334"/>
      <point x="464" y="-319"/>
      <point x="438" y="-293" type="curve" smooth="yes"/>
      <point x="434" y="-290"/>
      <point x="428" y="-287"/>
      <point x="423" y="-287" type="curve" smooth="yes"/>
      <point x="421" y="-287" type="line" smooth="yes"/>
      <point x="415" y="-287"/>
      <point x="409" y="-290"/>
      <point x="405" y="-295" type="curve" smooth="yes"/>
      <point x="384" y="-322"/>
      <point x="360" y="-334"/>
      <point x="330" y="-334" type="curve" smooth="yes"/>
      <point x="294" y="-334"/>
      <point x="269" y="-313"/>
      <point x="269" y="-275" type="curve" smooth="yes"/>
      <point x="269" y="-226"/>
      <point x="325" y="-148"/>
    </contour>
  </outline>
</glyph>
<glyph name="dieresiscomb.case" format="1">
  <advance width="0"/>
  <note>
    dieresiscmb.cap
  </note>
  <outline>
    <contour>
      <point x="91" y="730" type="curve" smooth="yes"/>
      <point x="71" y="730"/>
      <point x="52" y="712"/>
      <point x="52" y="682" type="curve" smooth="yes"/>
      <point x="52" y="650"/>
      <point x="71" y="634"/>
      <point x="91" y="634" type="curve" smooth="yes"/>
      <point x="109" y="634"/>
      <point x="129" y="649"/>
      <point x="129" y="682" type="curve" smooth="yes"/>
      <point x="129" y="713"/>
      <point x="109" y="730"/>
    </contour>
    <contour>
      <point x="-102" y="730" type="curve" smooth="yes"/>
      <point x="-122" y="730"/>
      <point x="-142" y="711"/>
      <point x="-142" y="682" type="curve" smooth="yes"/>
      <point x="-142" y="651"/>
      <point x="-122" y="634"/>
      <point x="-102" y="634" type="curve" smooth="yes"/>
      <point x="-84" y="634"/>
      <point x="-64" y="649"/>
      <point x="-64" y="682" type="curve" smooth="yes"/>
      <point x="-64" y="713"/>
      <point x="-84" y="730"/>
    </contour>
    <contour>
      <point x="0" y="535" type="move" name="_top"/>
    </contour>
  </outline>
</glyph>
<glyph name="drop-kannada" format="1">
  <advance width="86"/>
  <outline>
    <contour>
      <point x="66" y="-93" type="line" smooth="yes"/>
      <point x="66" y="-81"/>
      <point x="55" y="-70"/>
      <point x="43" y="-70" type="curve" smooth="yes"/>
      <point x="31" y="-70"/>
      <point x="20" y="-81"/>
      <point x="20" y="-93" type="curve" smooth="yes"/>
      <point x="20" y="-196" type="line" smooth="yes"/>
      <point x="20" y="-208"/>
      <point x="31" y="-219"/>
      <point x="43" y="-219" type="curve" smooth="yes"/>
      <point x="55" y="-219"/>
      <point x="66" y="-208"/>
      <point x="66" y="-196" type="curve" smooth="yes"/>
    </contour>
    <contour>
      <point x="43" y="0" type="move" name="_bottom"/>
    </contour>
  </outline>
</glyph>
<glyph name="hook-kannada" format="1">
  <advance width="746"/>
  <outline>
    <contour>
      <point x="507" y="456"/>
      <point x="498" y="447"/>
      <point x="498" y="433" type="curve" smooth="yes"/>
      <point x="498" y="419"/>
      <point x="507" y="410"/>
      <point x="521" y="410" type="curve" smooth="yes"/>
      <point x="604" y="410"/>
      <point x="652" y="440"/>
      <point x="689" y="499" type="curve" smooth="yes"/>
      <point x="691" y="503"/>
      <point x="692" y="507"/>
      <point x="692" y="511" type="curve" smooth="yes"/>
      <point x="692" y="524"/>
      <point x="682" y="534"/>
      <point x="669" y="534" type="curve" smooth="yes"/>
      <point x="661" y="534"/>
      <point x="654" y="530"/>
      <point x="649" y="523" type="curve" smooth="yes"/>
      <point x="621" y="478"/>
      <point x="584" y="456"/>
      <point x="521" y="456" type="curve" smooth="yes"/>
    </contour>
    <contour>
      <point x="521" y="456" type="move" name="_topright"/>
    </contour>
  </outline>
</glyph>
<glyph name="ja-kannada.below" format="1">
  <advance width="0"/>
  <note>
    knJAc2
  </note>
  <outline>
    <contour>
      <point x="137" y="-290" type="curve" smooth="yes"/>
      <point x="137" y="-278"/>
      <point x="135" y="-268"/>
      <point x="132" y="-256" type="curve" smooth="yes"/>
      <point x="129" y="-247"/>
      <point x="121" y="-241"/>
      <point x="112" y="-241" type="curve" smooth="yes"/>
      <point x="102" y="-241"/>
      <point x="91" y="-251"/>
      <point x="91" y="-262" type="curve" smooth="yes"/>
      <point x="91" y="-268"/>
      <point x="95" y="-276"/>
      <point x="95" y="-290" type="curve" smooth="yes"/>
      <point x="95" y="-316"/>
      <point x="73" y="-335"/>
      <point x="39" y="-335" type="curve" smooth="yes"/>
      <point x="6" y="-335"/>
      <point x="-26" y="-321"/>
      <point x="-57" y="-290" type="curve" smooth="yes"/>
      <point x="-61" y="-287"/>
      <point x="-67" y="-284"/>
      <point x="-72" y="-284" type="curve" smooth="yes"/>
      <point x="-76" y="-284" type="line" smooth="yes"/>
      <point x="-81" y="-284"/>
      <point x="-86" y="-287"/>
      <point x="-90" y="-290" type="curve" smooth="yes"/>
      <point x="-123" y="-322"/>
      <point x="-154" y="-335"/>
      <point x="-188" y="-335" type="curve" smooth="yes"/>
      <point x="-219" y="-335"/>
      <point x="-242" y="-322"/>
      <point x="-242" y="-298" type="curve" smooth="yes"/>
      <point x="-242" y="-278"/>
      <point x="-225" y="-261"/>
      <point x="-203" y="-250" type="curve" smooth="yes"/>
      <point x="-170" y="-232"/>
      <point x="-150" y="-213"/>
      <point x="-142" y="-194" type="curve"/>
      <point x="-102" y="-227"/>
      <point x="-59" y="-246"/>
      <point x="-15" y="-246" type="curve" smooth="yes"/>
      <point x="56" y="-246"/>
      <point x="81" y="-203"/>
      <point x="81" y="-158" type="curve" smooth="yes"/>
      <point x="81" y="-146"/>
      <point x="80" y="-139"/>
      <point x="77" y="-128" type="curve" smooth="yes"/>
      <point x="75" y="-119"/>
      <point x="67" y="-112"/>
      <point x="58" y="-112" type="curve" smooth="yes"/>
      <point x="45" y="-112"/>
      <point x="36" y="-121"/>
      <point x="36" y="-132" type="curve" smooth="yes"/>
      <point x="36" y="-138"/>
      <point x="39" y="-148"/>
      <point x="39" y="-158" type="curve" smooth="yes"/>
      <point x="39" y="-183"/>
      <point x="22" y="-204"/>
      <point x="-15" y="-204" type="curve" smooth="yes"/>
      <point x="-65" y="-204"/>
      <point x="-105" y="-175"/>
      <point x="-154" y="-126" type="curve" smooth="yes"/>
      <point x="-170" y="-110"/>
      <point x="-193" y="-100"/>
      <point x="-220" y="-100" type="curve" smooth="yes"/>
      <point x="-248" y="-100"/>
      <point x="-269" y="-105"/>
      <point x="-291" y="-116" type="curve" smooth="yes"/>
      <point x="-298" y="-120"/>
      <point x="-302" y="-128"/>
      <point x="-302" y="-136" type="curve" smooth="yes"/>
      <point x="-302" y="-147"/>
      <point x="-291" y="-156"/>
      <point x="-280" y="-156" type="curve" smooth="yes"/>
      <point x="-277" y="-156"/>
      <point x="-271" y="-154"/>
      <point x="-261" y="-149" type="curve" smooth="yes"/>
      <point x="-252" y="-145"/>
      <point x="-240" y="-142"/>
      <point x="-220" y="-142" type="curve" smooth="yes"/>
      <point x="-201" y="-142"/>
      <point x="-179" y="-152"/>
      <point x="-179" y="-171" type="curve" smooth="yes"/>
      <point x="-179" y="-187"/>
      <point x="-198" y="-199"/>
      <point x="-223" y="-212" type="curve" smooth="yes"/>
      <point x="-261" y="-233"/>
      <point x="-284" y="-264"/>
      <point x="-284" y="-298" type="curve" smooth="yes"/>
      <point x="-284" y="-340"/>
      <point x="-253" y="-377"/>
      <point x="-188" y="-377" type="curve" smooth="yes"/>
      <point x="-148" y="-377"/>
      <point x="-114" y="-364"/>
      <point x="-75" y="-331" type="curve"/>
      <point x="-38" y="-364"/>
      <point x="0" y="-377"/>
      <point x="39" y="-377" type="curve" smooth="yes"/>
      <point x="105" y="-377"/>
      <point x="137" y="-336"/>
    </contour>
  </outline>
</glyph>
<glyph name="la-kannada.below" format="1">
  <advance width="0"/>
  <note>
    knLAc2
  </note>
  <outline>
    <contour>
      <point x="74" y="-321" type="curve" smooth="yes"/>
      <point x="83" y="-321"/>
      <point x="91" y="-314"/>
      <point x="94" y="-305" type="curve" smooth="yes"/>
      <point x="102" y="-281"/>
      <point x="105" y="-263"/>
      <point x="105" y="-247" type="curve" smooth="yes"/>
      <point x="105" y="-179"/>
      <point x="64" y="-133"/>
      <point x="-13" y="-133" type="curve" smooth="yes"/>
      <point x="-67" y="-133"/>
      <point x="-106" y="-161"/>
      <point x="-139" y="-212" type="curve"/>
      <point x="-172" y="-161"/>
      <point x="-215" y="-132"/>
      <point x="-273" y="-132" type="curve" smooth="yes"/>
      <point x="-353" y="-132"/>
      <point x="-388" y="-183"/>
      <point x="-388" y="-239" type="curve" smooth="yes"/>
      <point x="-388" y="-267"/>
      <point x="-380" y="-286"/>
      <point x="-369" y="-309" type="curve" smooth="yes"/>
      <point x="-365" y="-317"/>
      <point x="-358" y="-321"/>
      <point x="-350" y="-321" type="curve" smooth="yes"/>
      <point x="-339" y="-321"/>
      <point x="-329" y="-311"/>
      <point x="-329" y="-300" type="curve" smooth="yes"/>
      <point x="-329" y="-297"/>
      <point x="-330" y="-294"/>
      <point x="-334" y="-286" type="curve" smooth="yes"/>
      <point x="-340" y="-274"/>
      <point x="-346" y="-260"/>
      <point x="-346" y="-239" type="curve" smooth="yes"/>
      <point x="-346" y="-203"/>
      <point x="-321" y="-174"/>
      <point x="-273" y="-174" type="curve" smooth="yes"/>
      <point x="-221" y="-174"/>
      <point x="-187" y="-208"/>
      <point x="-161" y="-260" type="curve" smooth="yes"/>
      <point x="-158" y="-267"/>
      <point x="-149" y="-272"/>
      <point x="-142" y="-272" type="curve" smooth="yes"/>
      <point x="-137" y="-272" type="line" smooth="yes"/>
      <point x="-130" y="-272"/>
      <point x="-121" y="-267"/>
      <point x="-118" y="-261" type="curve" smooth="yes"/>
      <point x="-90" y="-209"/>
      <point x="-62" y="-175"/>
      <point x="-13" y="-175" type="curve" smooth="yes"/>
      <point x="36" y="-175"/>
      <point x="63" y="-203"/>
      <point x="63" y="-247" type="curve" smooth="yes"/>
      <point x="63" y="-265"/>
      <point x="59" y="-278"/>
      <point x="56" y="-288" type="curve" smooth="yes"/>
      <point x="54" y="-295"/>
      <point x="53" y="-298"/>
      <point x="53" y="-300" type="curve" smooth="yes"/>
      <point x="53" y="-311"/>
      <point x="63" y="-321"/>
    </contour>
  </outline>
</glyph>
<glyph name="lluu-kannada" format="1">
  <advance width="1291"/>
  <note>
    knLLUU
  </note>
  <outline>
    <contour>
      <point x="192" y="317" type="curve" smooth="yes"/>
      <point x="163" y="317"/>
      <point x="136" y="323"/>
      <point x="112" y="333" type="curve"/>
      <point x="112" y="379"/>
      <point x="148" y="425"/>
      <point x="198" y="425" type="curve" smooth="yes"/>
      <point x="237" y="425"/>
      <point x="263" y="402"/>
      <point x="263" y="371" type="curve" smooth="yes"/>
      <point x="263" y="338"/>
      <point x="234" y="317"/>
    </contour>
    <contour>
      <point x="1091" y="42" type="curve" smooth="yes"/>
      <point x="1050" y="42"/>
      <point x="1025" y="72"/>
      <point x="1025" y="106" type="curve" smooth="yes"/>
      <point x="1025" y="149"/>
      <point x="1055" y="183"/>
      <point x="1112" y="183" type="curve" smooth="yes"/>
      <point x="1135" y="183"/>
      <point x="1158" y="178"/>
      <point x="1178" y="172" type="curve"/>
      <point x="1178" y="167" type="line" smooth="yes"/>
      <point x="1178" y="93"/>
      <point x="1144" y="42"/>
    </contour>
    <contour>
      <point x="485" y="84" type="curve" smooth="yes"/>
      <point x="485" y="107"/>
      <point x="479" y="130"/>
      <point x="462" y="149" type="curve"/>
      <point x="494" y="155"/>
      <point x="521" y="163"/>
      <point x="543" y="173" type="curve"/>
      <point x="599" y="72"/>
      <point x="668" y="0"/>
      <point x="757" y="0" type="curve" smooth="yes"/>
      <point x="840" y="0"/>
      <point x="881" y="50"/>
      <point x="881" y="125" type="curve" smooth="yes"/>
      <point x="881" y="178"/>
      <point x="856" y="228"/>
      <point x="856" y="288" type="curve" smooth="yes"/>
      <point x="856" y="344"/>
      <point x="896" y="410"/>
      <point x="975" y="410" type="curve" smooth="yes"/>
      <point x="1055" y="410"/>
      <point x="1150" y="341"/>
      <point x="1173" y="221" type="curve"/>
      <point x="1153" y="226"/>
      <point x="1132" y="229"/>
      <point x="1112" y="229" type="curve" smooth="yes"/>
      <point x="1021" y="229"/>
      <point x="979" y="171"/>
      <point x="979" y="106" type="curve" smooth="yes"/>
      <point x="979" y="48"/>
      <point x="1020" y="-4"/>
      <point x="1091" y="-4" type="curve" smooth="yes"/>
      <point x="1164" y="-4"/>
      <point x="1224" y="55"/>
      <point x="1224" y="167" type="curve" smooth="yes"/>
      <point x="1224" y="354"/>
      <point x="1085" y="456"/>
      <point x="975" y="456" type="curve" smooth="yes"/>
      <point x="866" y="456"/>
      <point x="810" y="366"/>
      <point x="810" y="288" type="curve" smooth="yes"/>
      <point x="810" y="228"/>
      <point x="835" y="178"/>
      <point x="835" y="125" type="curve" smooth="yes"/>
      <point x="835" y="78"/>
      <point x="810" y="46"/>
      <point x="757" y="46" type="curve" smooth="yes"/>
      <point x="682" y="46"/>
      <point x="628" y="114"/>
      <point x="583" y="197" type="curve"/>
      <point x="586" y="200"/>
      <point x="590" y="203"/>
      <point x="593" y="206" type="curve" smooth="yes"/>
      <point x="621" y="232"/>
      <point x="636" y="268"/>
      <point x="636" y="304" type="curve" smooth="yes"/>
      <point x="636" y="338"/>
      <point x="620" y="382"/>
      <point x="587" y="416" type="curve"/>
      <point x="637" y="427"/>
      <point x="670" y="455"/>
      <point x="698" y="499" type="curve" smooth="yes"/>
      <point x="700" y="503"/>
      <point x="701" y="507"/>
      <point x="701" y="511" type="curve" smooth="yes"/>
      <point x="701" y="523"/>
      <point x="692" y="534"/>
      <point x="678" y="534" type="curve" smooth="yes"/>
      <point x="670" y="534"/>
      <point x="663" y="530"/>
      <point x="658" y="523" type="curve" smooth="yes"/>
      <point x="630" y="478"/>
      <point x="593" y="456"/>
      <point x="530" y="456" type="curve" smooth="yes"/>
      <point x="428" y="456" type="line" smooth="yes"/>
      <point x="416" y="456"/>
      <point x="405" y="445"/>
      <point x="405" y="433" type="curve" smooth="yes"/>
      <point x="405" y="421"/>
      <point x="416" y="410"/>
      <point x="428" y="410" type="curve" smooth="yes"/>
      <point x="516" y="410" type="line"/>
      <point x="565" y="387"/>
      <point x="590" y="339"/>
      <point x="590" y="304" type="curve" smooth="yes"/>
      <point x="590" y="280"/>
      <point x="579" y="256"/>
      <point x="561" y="238" type="curve" smooth="yes"/>
      <point x="529" y="207"/>
      <point x="462" y="187"/>
      <point x="360" y="187" type="curve" smooth="yes"/>
      <point x="227" y="187"/>
      <point x="175" y="208"/>
      <point x="137" y="245" type="curve"/>
      <point x="128" y="255"/>
      <point x="121" y="268"/>
      <point x="118" y="282" type="curve"/>
      <point x="141" y="275"/>
      <point x="165" y="271"/>
      <point x="192" y="271" type="curve" smooth="yes"/>
      <point x="270" y="271"/>
      <point x="309" y="316"/>
      <point x="309" y="371" type="curve" smooth="yes"/>
      <point x="309" y="424"/>
      <point x="269" y="471"/>
      <point x="198" y="471" type="curve" smooth="yes"/>
      <point x="124" y="471"/>
      <point x="66" y="407"/>
      <point x="66" y="329" type="curve" smooth="yes"/>
      <point x="66" y="286"/>
      <point x="78" y="239"/>
      <point x="105" y="213" type="curve" smooth="yes"/>
      <point x="134" y="183"/>
      <point x="171" y="160"/>
      <point x="244" y="149" type="curve"/>
      <point x="227" y="130"/>
      <point x="220" y="107"/>
      <point x="220" y="85" type="curve" smooth="yes"/>
      <point x="220" y="38"/>
      <point x="257" y="-16"/>
      <point x="352" y="-16" type="curve" smooth="yes"/>
      <point x="451" y="-16"/>
      <point x="485" y="38"/>
    </contour>
    <contour>
      <point x="352" y="139" type="curve" smooth="yes"/>
      <point x="356" y="139" type="line" smooth="yes"/>
      <point x="412" y="139"/>
      <point x="439" y="115"/>
      <point x="439" y="84" type="curve" smooth="yes"/>
      <point x="439" y="54"/>
      <point x="405" y="30"/>
      <point x="352" y="30" type="curve" smooth="yes"/>
      <point x="301" y="30"/>
      <point x="266" y="54"/>
      <point x="266" y="85" type="curve" smooth="yes"/>
      <point x="266" y="116"/>
      <point x="298" y="138"/>
    </contour>
  </outline>
</glyph>
<glyph name="ngaa-kannada" format="1">
  <advance width="1095"/>
  <note>
    knNGAA
  </note>
  <outline>
    <contour>
      <point x="895" y="-4" type="curve" smooth="yes"/>
      <point x="968" y="-4"/>
      <point x="1028" y="55"/>
      <point x="1028" y="167" type="curve" smooth="yes"/>
      <point x="1028" y="353"/>
      <point x="913" y="456"/>
      <point x="754" y="456" type="curve" smooth="yes"/>
      <point x="641" y="456" type="line" smooth="yes"/>
      <point x="629" y="456"/>
      <point x="618" y="445"/>
      <point x="618" y="433" type="curve" smooth="yes"/>
      <point x="618" y="421"/>
      <point x="629" y="410"/>
      <point x="641" y="410" type="curve" smooth="yes"/>
      <point x="754" y="410" type="line" smooth="yes"/>
      <point x="870" y="410"/>
      <point x="958" y="342"/>
      <point x="978" y="221" type="curve"/>
      <point x="958" y="226"/>
      <point x="936" y="229"/>
      <point x="916" y="229" type="curve" smooth="yes"/>
      <point x="825" y="229"/>
      <point x="783" y="171"/>
      <point x="783" y="106" type="curve" smooth="yes"/>
      <point x="783" y="48"/>
      <point x="824" y="-4"/>
    </contour>
    <contour>
      <point x="895" y="42" type="curve" smooth="yes"/>
      <point x="854" y="42"/>
      <point x="829" y="72"/>
      <point x="829" y="106" type="curve" smooth="yes"/>
      <point x="829" y="149"/>
      <point x="859" y="183"/>
      <point x="916" y="183" type="curve" smooth="yes"/>
      <point x="939" y="183"/>
      <point x="962" y="178"/>
      <point x="982" y="172" type="curve"/>
      <point x="982" y="167" type="line" smooth="yes"/>
      <point x="982" y="93"/>
      <point x="948" y="42"/>
    </contour>
    <component base="nga-kannada.base"/>
  </outline>
</glyph>
<glyph name="nge-kannada" format="1">
  <advance width="1065"/>
  <note>
    knNGE
  </note>
  <outline>
    <contour>
      <point x="887" y="456" type="line"/>
      <point x="771" y="456" type="line" smooth="yes"/>
      <point x="759" y="456"/>
      <point x="748" y="445"/>
      <point x="748" y="433" type="curve" smooth="yes"/>
      <point x="748" y="421"/>
      <point x="759" y="410"/>
      <point x="771" y="410" type="curve" smooth="yes"/>
      <point x="841" y="410" type="line"/>
      <point x="834" y="352"/>
      <point x="804" y="323"/>
      <point x="757" y="323" type="curve" smooth="yes"/>
      <point x="713" y="323"/>
      <point x="679" y="351"/>
      <point x="642" y="405" type="curve" smooth="yes"/>
      <point x="583" y="491"/>
      <point x="523" y="524"/>
      <point x="448" y="524" type="curve" smooth="yes"/>
      <point x="386" y="524"/>
      <point x="324" y="497"/>
      <point x="279" y="421" type="curve"/>
      <point x="262" y="452"/>
      <point x="229" y="472"/>
      <point x="183" y="472" type="curve" smooth="yes"/>
      <point x="140" y="472"/>
      <point x="105" y="452"/>
      <point x="75" y="418" type="curve" smooth="yes"/>
      <point x="71" y="414"/>
      <point x="69" y="408"/>
      <point x="69" y="403" type="curve" smooth="yes"/>
      <point x="69" y="390"/>
      <point x="80" y="380"/>
      <point x="92" y="380" type="curve" smooth="yes"/>
      <point x="99" y="380"/>
      <point x="105" y="383"/>
      <point x="109" y="388" type="curve" smooth="yes"/>
      <point x="129" y="410"/>
      <point x="154" y="426"/>
      <point x="183" y="426" type="curve" smooth="yes"/>
      <point x="219" y="426"/>
      <point x="245" y="403"/>
      <point x="245" y="372" type="curve" smooth="yes"/>
      <point x="245" y="338"/>
      <point x="223" y="311"/>
      <point x="175" y="272" type="curve" smooth="yes"/>
      <point x="120" y="227"/>
      <point x="87" y="180"/>
      <point x="87" y="126" type="curve" smooth="yes"/>
      <point x="87" y="60"/>
      <point x="133" y="1"/>
      <point x="222" y="1" type="curve" smooth="yes"/>
      <point x="289" y="1"/>
      <point x="337" y="26"/>
      <point x="382" y="88" type="curve"/>
      <point x="425" y="31"/>
      <point x="474" y="1"/>
      <point x="545" y="1" type="curve" smooth="yes"/>
      <point x="632" y="1"/>
      <point x="683" y="61"/>
      <point x="683" y="131" type="curve" smooth="yes"/>
      <point x="683" y="181"/>
      <point x="665" y="222"/>
      <point x="630" y="252" type="curve" smooth="yes"/>
      <point x="626" y="256"/>
      <point x="621" y="258"/>
      <point x="616" y="258" type="curve" smooth="yes"/>
      <point x="602" y="258"/>
      <point x="592" y="247"/>
      <point x="592" y="236" type="curve" smooth="yes"/>
      <point x="592" y="229"/>
      <point x="595" y="222"/>
      <point x="600" y="218" type="curve" smooth="yes"/>
      <point x="625" y="196"/>
      <point x="637" y="167"/>
      <point x="637" y="131" type="curve" smooth="yes"/>
      <point x="637" y="85"/>
      <point x="602" y="47"/>
      <point x="545" y="47" type="curve" smooth="yes"/>
      <point x="480" y="47"/>
      <point x="440" y="80"/>
      <point x="403" y="137" type="curve"/>
      <point x="400" y="143"/>
      <point x="391" y="148"/>
      <point x="384" y="148" type="curve" smooth="yes"/>
      <point x="379" y="148" type="line" smooth="yes"/>
      <point x="372" y="148"/>
      <point x="363" y="143"/>
      <point x="359" y="137" type="curve" smooth="yes"/>
      <point x="320" y="74"/>
      <point x="281" y="47"/>
      <point x="222" y="47" type="curve" smooth="yes"/>
      <point x="165" y="47"/>
      <point x="133" y="82"/>
      <point x="133" y="126" type="curve" smooth="yes"/>
      <point x="133" y="168"/>
      <point x="162" y="203"/>
      <point x="203" y="236" type="curve" smooth="yes"/>
      <point x="250" y="273"/>
      <point x="270" y="298"/>
      <point x="289" y="341" type="curve" smooth="yes"/>
      <point x="332" y="440"/>
      <point x="383" y="478"/>
      <point x="448" y="478" type="curve" smooth="yes"/>
      <point x="509" y="478"/>
      <point x="557" y="449"/>
      <point x="604" y="379" type="curve" smooth="yes"/>
      <point x="653" y="307"/>
      <point x="701" y="277"/>
      <point x="757" y="277" type="curve" smooth="yes"/>
      <point x="826" y="277"/>
      <point x="879" y="314"/>
      <point x="887" y="410" type="curve"/>
    </contour>
    <contour>
      <point x="485" y="336"/>
      <point x="464" y="364"/>
      <point x="433" y="364" type="curve" smooth="yes"/>
      <point x="405" y="364"/>
      <point x="382" y="336"/>
      <point x="382" y="314" type="curve" smooth="yes"/>
      <point x="382" y="285"/>
      <point x="406" y="262"/>
      <point x="433" y="262" type="curve" smooth="yes"/>
      <point x="464" y="262"/>
      <point x="485" y="286"/>
      <point x="485" y="313" type="curve" smooth="yes"/>
    </contour>
    <component base="eMatra-kannada" xOffset="1074"/>
  </outline>
</glyph>
<glyph name="pu-kannada" format="1">
  <advance width="972"/>
  <note>
    knPU
  </note>
  <outline>
    <component base="pa-kannada"/>
    <component base="uMatra-kannada.below" xOffset="390"/>
    <contour>
      <point x="373" y="0" type="move" name="bottom"/>
    </contour>
  </outline>
</glyph>
<glyph name="rVocalicMatra-kannada.following" format="1">
  <advance width="609"/>
  <note>
    knsignvR.following
  </note>
  <outline>
    <contour>
      <point x="310" y="-242" type="curve" smooth="yes"/>
      <point x="281" y="-242"/>
      <point x="265" y="-233"/>
      <point x="251" y="-224" type="curve"/>
      <point x="251" y="-220" type="line" smooth="yes"/>
      <point x="251" y="-179"/>
      <point x="275" y="-143"/>
      <point x="313" y="-143" type="curve" smooth="yes"/>
      <point x="346" y="-143"/>
      <point x="362" y="-165"/>
      <point x="362" y="-189" type="curve" smooth="yes"/>
      <point x="362" y="-222"/>
      <point x="337" y="-242"/>
    </contour>
    <contour>
      <point x="547" y="-359" type="curve" smooth="yes"/>
      <point x="583" y="-323"/>
      <point x="603" y="-269"/>
      <point x="603" y="-197" type="curve" smooth="yes"/>
      <point x="603" y="-134"/>
      <point x="586" y="-44"/>
      <point x="555" y="51" type="curve" smooth="yes"/>
      <point x="552" y="59"/>
      <point x="543" y="65"/>
      <point x="534" y="65" type="curve" smooth="yes"/>
      <point x="523" y="65"/>
      <point x="514" y="54"/>
      <point x="514" y="43" type="curve" smooth="yes"/>
      <point x="514" y="40"/>
      <point x="515" y="36"/>
      <point x="518" y="27" type="curve" smooth="yes"/>
      <point x="544" y="-51"/>
      <point x="561" y="-138"/>
      <point x="561" y="-197" type="curve" smooth="yes"/>
      <point x="561" y="-255"/>
      <point x="547" y="-299"/>
      <point x="517" y="-329" type="curve" smooth="yes"/>
      <point x="491" y="-356"/>
      <point x="454" y="-370"/>
      <point x="407" y="-370" type="curve" smooth="yes"/>
      <point x="364" y="-370"/>
      <point x="321" y="-357"/>
      <point x="295" y="-330" type="curve" smooth="yes"/>
      <point x="279" y="-314"/>
      <point x="267" y="-296"/>
      <point x="260" y="-276" type="curve"/>
      <point x="273" y="-281"/>
      <point x="289" y="-284"/>
      <point x="310" y="-284" type="curve" smooth="yes"/>
      <point x="358" y="-284"/>
      <point x="404" y="-250"/>
      <point x="404" y="-189" type="curve" smooth="yes"/>
      <point x="404" y="-145"/>
      <point x="376" y="-101"/>
      <point x="313" y="-101" type="curve" smooth="yes"/>
      <point x="255" y="-101"/>
      <point x="209" y="-151"/>
      <point x="209" y="-220" type="curve" smooth="yes"/>
      <point x="209" y="-277"/>
      <point x="227" y="-322"/>
      <point x="265" y="-360" type="curve" smooth="yes"/>
      <point x="299" y="-393"/>
      <point x="352" y="-412"/>
      <point x="407" y="-412" type="curve" smooth="yes"/>
      <point x="466" y="-412"/>
      <point x="513" y="-392"/>
    </contour>
  </outline>
</glyph>
<glyph name="ringcomb.case" format="1">
  <advance width="0"/>
  <note>
    ringcmb.cap
  </note>
  <outline>
    <contour>
      <point x="109" y="650" type="curve" smooth="yes"/>
      <point x="109" y="701"/>
      <point x="69" y="750"/>
      <point x="0" y="750" type="curve" smooth="yes"/>
      <point x="-67" y="750"/>
      <point x="-106" y="698"/>
      <point x="-106" y="650" type="curve" smooth="yes"/>
      <point x="-106" y="602"/>
      <point x="-67" y="550"/>
      <point x="0" y="550" type="curve" smooth="yes"/>
      <point x="69" y="550"/>
      <point x="109" y="599"/>
    </contour>
    <contour>
      <point x="65" y="650" type="curve" smooth="yes"/>
      <point x="65" y="619"/>
      <point x="39" y="594"/>
      <point x="0" y="594" type="curve" smooth="yes"/>
      <point x="-37" y="594"/>
      <point x="-62" y="622"/>
      <point x="-62" y="650" type="curve" smooth="yes"/>
      <point x="-62" y="678"/>
      <point x="-37" y="706"/>
      <point x="0" y="706" type="curve" smooth="yes"/>
      <point x="39" y="706"/>
      <point x="65" y="681"/>
    </contour>
    <contour>
      <point x="0" y="535" type="move" name="_top"/>
    </contour>
  </outline>
</glyph>
<glyph name="si-kannada" format="1">
  <advance width="638"/>
  <note>
    knSI
  </note>
  <outline>
    <contour>
      <point x="87" y="144"/>
      <point x="67" y="92"/>
      <point x="67" y="13" type="curve" smooth="yes"/>
      <point x="67" y="1"/>
      <point x="78" y="-10"/>
      <point x="90" y="-10" type="curve" smooth="yes"/>
      <point x="102" y="-10"/>
      <point x="113" y="1"/>
      <point x="113" y="13" type="curve" smooth="yes"/>
      <point x="113" y="74"/>
      <point x="125" y="118"/>
      <point x="148" y="141" type="curve" smooth="yes"/>
      <point x="160" y="153"/>
      <point x="179" y="162"/>
      <point x="201" y="162" type="curve" smooth="yes"/>
      <point x="233" y="162"/>
      <point x="268" y="144"/>
      <point x="300" y="100" type="curve" smooth="yes"/>
      <point x="345" y="40"/>
      <point x="381" y="0"/>
      <point x="448" y="0" type="curve" smooth="yes"/>
      <point x="522" y="0"/>
      <point x="586" y="47"/>
      <point x="586" y="168" type="curve" smooth="yes"/>
      <point x="586" y="198"/>
      <point x="580" y="239"/>
      <point x="570" y="270" type="curve" smooth="yes"/>
      <point x="567" y="280"/>
      <point x="558" y="286"/>
      <point x="548" y="286" type="curve" smooth="yes"/>
      <point x="535" y="286"/>
      <point x="525" y="275"/>
      <point x="525" y="263" type="curve" smooth="yes"/>
      <point x="525" y="260"/>
      <point x="526" y="255"/>
      <point x="530" y="241" type="curve" smooth="yes"/>
      <point x="534" y="226"/>
      <point x="540" y="194"/>
      <point x="540" y="168" type="curve" smooth="yes"/>
      <point x="540" y="87"/>
      <point x="502" y="46"/>
      <point x="448" y="46" type="curve" smooth="yes"/>
      <point x="395" y="46"/>
      <point x="371" y="82"/>
      <point x="338" y="128" type="curve" smooth="yes"/>
      <point x="294" y="188"/>
      <point x="243" y="208"/>
      <point x="201" y="208" type="curve" smooth="yes"/>
      <point x="165" y="208"/>
      <point x="136" y="193"/>
      <point x="116" y="173" type="curve" smooth="yes"/>
    </contour>
    <component base="iMatra-kannada" xOffset="607"/>
  </outline>
</glyph>
<glyph name="ta_ra-kannada.below.following" format="1">
  <advance width="718"/>
  <note>
    knTAc2_RAc2.following
  </note>
  <outline>
    <contour>
      <point x="418" y="-263" type="curve" smooth="yes"/>
      <point x="408" y="-264"/>
      <point x="398" y="-273"/>
      <point x="398" y="-283" type="curve" smooth="yes"/>
      <point x="398" y="-295"/>
      <point x="407" y="-304"/>
      <point x="419" y="-304" type="curve" smooth="yes"/>
      <point x="506" y="-304"/>
      <point x="589" y="-270"/>
      <point x="629" y="-231" type="curve" smooth="yes"/>
      <point x="671" y="-189"/>
      <point x="690" y="-139"/>
      <point x="690" y="-68" type="curve" smooth="yes"/>
      <point x="690" y="-29"/>
      <point x="685" y="15"/>
      <point x="674" y="50" type="curve" smooth="yes"/>
      <point x="672" y="58"/>
      <point x="663" y="65"/>
      <point x="653" y="65" type="curve" smooth="yes"/>
      <point x="642" y="65"/>
      <point x="633" y="55"/>
      <point x="633" y="44" type="curve" smooth="yes"/>
      <point x="633" y="41"/>
      <point x="637" y="26"/>
      <point x="639" y="15" type="curve" smooth="yes"/>
      <point x="645" y="-16"/>
      <point x="648" y="-36"/>
      <point x="648" y="-68" type="curve" smooth="yes"/>
      <point x="648" y="-125"/>
      <point x="633" y="-167"/>
      <point x="599" y="-201" type="curve" smooth="yes"/>
      <point x="565" y="-236"/>
      <point x="496" y="-259"/>
    </contour>
    <contour>
      <point x="148" y="-159" type="curve" smooth="yes"/>
      <point x="414" y="-159" type="line" smooth="yes"/>
      <point x="521" y="-159"/>
      <point x="550" y="-107"/>
      <point x="550" y="-55" type="curve" smooth="yes"/>
      <point x="550" y="-3"/>
      <point x="513" y="37"/>
      <point x="456" y="37" type="curve" smooth="yes"/>
      <point x="398" y="37"/>
      <point x="355" y="-8"/>
      <point x="355" y="-74" type="curve" smooth="yes"/>
      <point x="355" y="-89"/>
      <point x="358" y="-104"/>
      <point x="360" y="-117" type="curve"/>
      <point x="148" y="-117" type="line" smooth="yes"/>
      <point x="137" y="-117"/>
      <point x="127" y="-127"/>
      <point x="127" y="-138" type="curve" smooth="yes"/>
      <point x="127" y="-149"/>
      <point x="137" y="-159"/>
    </contour>
    <contour>
      <point x="397" y="-74" type="curve" smooth="yes"/>
      <point x="397" y="-36"/>
      <point x="420" y="-5"/>
      <point x="456" y="-5" type="curve" smooth="yes"/>
      <point x="487" y="-5"/>
      <point x="508" y="-27"/>
      <point x="508" y="-55" type="curve" smooth="yes"/>
      <point x="508" y="-91"/>
      <point x="477" y="-117"/>
      <point x="414" y="-117" type="curve" smooth="yes"/>
      <point x="404" y="-117" type="line"/>
      <point x="401" y="-105"/>
      <point x="397" y="-89"/>
    </contour>
  </outline>
</glyph>
<glyph name="uMatra-kannada.base" format="1">
  <advance width="316"/>
  <note>
    knsignU
  </note>
  <outline>
    <contour>
      <point x="-42" y="29"/>
      <point x="25" y="0"/>
      <point x="87" y="0" type="curve" smooth="yes"/>
      <point x="193" y="0"/>
      <point x="249" y="69"/>
      <point x="249" y="169" type="curve" smooth="yes"/>
      <point x="249" y="254"/>
      <point x="205" y="359"/>
      <point x="137" y="427" type="curve" smooth="yes"/>
      <point x="135" y="429"/>
      <point x="132" y="432"/>
      <point x="129" y="435" type="curve"/>
      <point x="129" y="445"/>
      <point x="118" y="456"/>
      <point x="106" y="456" type="curve" smooth="yes"/>
      <point x="36" y="456" type="line" smooth="yes"/>
      <point x="24" y="456"/>
      <point x="13" y="445"/>
      <point x="13" y="433" type="curve" smooth="yes"/>
      <point x="13" y="421"/>
      <point x="24" y="410"/>
      <point x="36" y="410" type="curve" smooth="yes"/>
      <point x="89" y="410" type="line"/>
      <point x="96" y="404"/>
      <point x="101" y="399"/>
      <point x="103" y="397" type="curve" smooth="yes"/>
      <point x="159" y="335"/>
      <point x="203" y="245"/>
      <point x="203" y="169" type="curve" smooth="yes"/>
      <point x="203" y="97"/>
      <point x="164" y="46"/>
      <point x="89" y="46" type="curve" smooth="yes"/>
      <point x="36" y="46"/>
      <point x="-27" y="77"/>
      <point x="-81" y="177" type="curve"/>
      <point x="-95" y="117" type="line"/>
    </contour>
    <contour>
      <point x="106" y="456" type="move" name="topright"/>
    </contour>
    <contour>
      <point x="226" y="0" type="move" name="bottom"/>
    </contour>
  </outline>
</glyph>
<glyph name="uMatra-kannada.below" format="1">
  <advance width="582"/>
  <outline>
    <contour>
      <point x="8" y="112"/>
      <point x="-5" y="86"/>
      <point x="-4" y="85" type="curve"/>
      <point x="101" y="-88"/>
      <point x="185" y="-140"/>
      <point x="292" y="-140" type="curve" smooth="yes"/>
      <point x="420" y="-140"/>
      <point x="515" y="-39"/>
      <point x="515" y="140" type="curve" smooth="yes"/>
      <point x="515" y="253"/>
      <point x="465" y="347"/>
      <point x="405" y="421" type="curve" smooth="yes"/>
      <point x="397" y="431"/>
      <point x="390" y="435"/>
      <point x="383" y="435" type="curve" smooth="yes"/>
      <point x="370" y="435"/>
      <point x="360" y="425"/>
      <point x="360" y="412" type="curve" smooth="yes"/>
      <point x="360" y="406"/>
      <point x="362" y="399"/>
      <point x="368" y="393" type="curve" smooth="yes"/>
      <point x="419" y="341"/>
      <point x="472" y="236"/>
      <point x="472" y="142" type="curve" smooth="yes"/>
      <point x="472" y="-9"/>
      <point x="399" y="-94"/>
      <point x="293" y="-94" type="curve" smooth="yes"/>
      <point x="201" y="-94"/>
      <point x="127" y="-56"/>
      <point x="15" y="122" type="curve"/>
    </contour>
    <contour>
      <point x="226" y="0" type="move" name="bottom"/>
    </contour>
  </outline>
</glyph>
<glyph name="ya-kannada.base" format="1">
  <advance width="1220"/>
  <note>
    knYA.base
  </note>
  <outline>
    <contour>
      <point x="185" y="42"/>
      <point x="113" y="119"/>
      <point x="113" y="223" type="curve" smooth="yes"/>
      <point x="113" y="317"/>
      <point x="193" y="410"/>
      <point x="301" y="410" type="curve" smooth="yes"/>
      <point x="411" y="410"/>
      <point x="489" y="315"/>
      <point x="489" y="223" type="curve" smooth="yes"/>
      <point x="489" y="121"/>
      <point x="415" y="42"/>
      <point x="301" y="42" type="curve"/>
    </contour>
    <contour>
      <point x="661" y="456" type="line"/>
      <point x="589" y="456" type="line" smooth="yes"/>
      <point x="577" y="456"/>
      <point x="566" y="445"/>
      <point x="566" y="433" type="curve" smooth="yes"/>
      <point x="566" y="421"/>
      <point x="577" y="410"/>
      <point x="589" y="410" type="curve" smooth="yes"/>
      <point x="661" y="410" type="line"/>
    </contour>
    <contour>
      <point x="439" y="-4"/>
      <point x="535" y="90"/>
      <point x="535" y="223" type="curve" smooth="yes"/>
      <point x="535" y="337"/>
      <point x="437" y="456"/>
      <point x="301" y="456" type="curve" smooth="yes"/>
      <point x="167" y="456"/>
      <point x="67" y="339"/>
      <point x="67" y="223" type="curve" smooth="yes"/>
      <point x="67" y="93"/>
      <point x="155" y="-4"/>
      <point x="301" y="-4" type="curve" smooth="yes"/>
    </contour>
    <component base="hook-kannada" xOffset="180"/>
    <component base="uMatra-kannada.base" xOffset="593"/>
    <component base="uMatra-kannada.base" xOffset="903"/>
    <contour>
      <point x="1011" y="456" type="move" name="topright"/>
    </contour>
    <contour>
      <point x="1130" y="0" type="move" name="bottom"/>
    </contour>
  </outline>
</glyph>
